<?xml version="1.0" encoding="UTF-8" standalone="no"?>
<!-- Created with Inkscape (http://www.inkscape.org/) -->

<svg
   width="210mm"
   height="297mm"
   viewBox="0 0 210 297"
   version="1.1"
   id="svg5"
   xml:space="preserve"
   inkscape:version="1.2.1 (9c6d41e410, 2022-07-14)"
   sodipodi:docname="404.svg"
   xmlns:inkscape="http://www.inkscape.org/namespaces/inkscape"
   xmlns:sodipodi="http://sodipodi.sourceforge.net/DTD/sodipodi-0.dtd"
   xmlns="http://www.w3.org/2000/svg"
   xmlns:svg="http://www.w3.org/2000/svg"><sodipodi:namedview
     id="namedview7"
     pagecolor="#505050"
     bordercolor="#eeeeee"
     borderopacity="1"
     inkscape:showpageshadow="0"
     inkscape:pageopacity="0"
     inkscape:pagecheckerboard="0"
     inkscape:deskcolor="#505050"
     inkscape:document-units="mm"
     showgrid="false"
     inkscape:zoom="0.36925856"
     inkscape:cx="150.30119"
     inkscape:cy="403.5113"
     inkscape:window-width="1920"
     inkscape:window-height="1009"
     inkscape:window-x="-8"
     inkscape:window-y="-8"
     inkscape:window-maximized="1"
     inkscape:current-layer="layer1" /><defs
     id="defs2" /><g
     inkscape:label="Layer 1"
     inkscape:groupmode="layer"
     id="layer1"><path
       style="fill:none;fill-opacity:0;stroke:#000000;stroke-width:0.264583"
       d="M 5.3739439,214.59952 C -16.83836,216.39083 -11.464415,187.37153 -11.464415,187.37153 L -77.3848,186.29674 c -23.64536,-23.64535 -14.688782,-25.43667 -0.358264,-43.70808 l 67.353438,-84.908322 -0.358263,95.297952 -41.916767,0.71652 65.20386,-82.758743 1.433052,81.683953 c 32.243667,12.18095 2.149578,25.07841 2.149578,25.07841 7.523522,47.29071 -6.4487341,36.90109 -6.4487341,36.90109 L 115.71894,215.31604 C 10.747889,188.80458 54.814232,40.483718 107.12063,51.589867 c 80.52986,93.297763 0.35826,131.482513 0.35826,131.482513 -55.889023,-35.8263 0.71652,-101.388423 0.71652,-101.388423 116.43547,15.047044 17.91315,132.199033 17.91315,132.199033 l 156.91919,0 C 258.66586,207.076 264.0398,183.7889 264.0398,183.7889 l -65.20385,2.50784 c -20.77925,-4.65741 -16.12184,-26.15319 -16.12184,-26.15319 l 85.98312,-105.687579 -3.58263,99.955369 -42.6333,-0.35826 66.99518,-90.282272 -0.35826,88.132692 c 35.10977,14.33052 1.43305,25.43667 1.43305,25.43667 3.22436,38.33414 -5.01568,41.20024 -5.01568,41.20024 z"
       id="path356"
       sodipodi:nodetypes="cccccccccccccccccccccccccccc" /></g></svg>
