<?xml version="1.0" encoding="UTF-8" standalone="no"?>
<!-- Created with Inkscape (http://www.inkscape.org/) -->

<svg
   width="210mm"
   height="297mm"
   viewBox="0 0 210 297"
   version="1.1"
   id="svg5"
   xml:space="preserve"
   inkscape:version="1.2.1 (9c6d41e410, 2022-07-14)"
   sodipodi:docname="astley.svg"
   xmlns:inkscape="http://www.inkscape.org/namespaces/inkscape"
   xmlns:sodipodi="http://sodipodi.sourceforge.net/DTD/sodipodi-0.dtd"
   xmlns="http://www.w3.org/2000/svg"
   xmlns:svg="http://www.w3.org/2000/svg"><sodipodi:namedview
     id="namedview7"
     pagecolor="#505050"
     bordercolor="#eeeeee"
     borderopacity="1"
     inkscape:showpageshadow="0"
     inkscape:pageopacity="0"
     inkscape:pagecheckerboard="0"
     inkscape:deskcolor="#505050"
     inkscape:document-units="mm"
     showgrid="false"
     inkscape:zoom="0.73851712"
     inkscape:cx="370.33671"
     inkscape:cy="584.95598"
     inkscape:window-width="1920"
     inkscape:window-height="1009"
     inkscape:window-x="-8"
     inkscape:window-y="-8"
     inkscape:window-maximized="1"
     inkscape:current-layer="layer1" /><defs
     id="defs2" /><g
     inkscape:label="Layer 1"
     inkscape:groupmode="layer"
     id="layer1"><path
       style="fill:none;fill-opacity:0;stroke:#000000;stroke-width:0.264583"
       d="M 27.106329,274.35657 25.586347,158.33136 C 58.01261,141.61157 56.999289,146.67817 56.999289,146.67817 l 13.679829,-14.69315 v -9.11989 c -0.168887,-0.67555 -0.286459,-1.36603 -0.50666,-2.02664 -0.206438,-0.61931 -2.07307,-1.56641 -2.533302,-2.02664 -0.133516,-0.13352 -0.148591,-0.34955 -0.25333,-0.50666 -0.255522,-0.38328 -0.739271,-0.64792 -1.013321,-1.01332 -0.408904,-0.54521 -0.634137,-1.20454 -1.01332,-1.77331 -0.219893,-0.32984 -0.585302,-0.66394 -0.759991,-1.01332 -0.119421,-0.23884 -0.105207,-0.53781 -0.25333,-0.75999 -0.04684,-0.0703 -0.19362,0.0597 -0.25333,0 -0.131123,-0.13112 -0.122208,-0.8822 -0.25333,-1.01332 -0.133517,-0.13352 -0.401922,-0.0962 -0.506661,-0.25333 -0.09368,-0.14052 0.04096,-0.34282 0,-0.50666 -0.0458,-0.18319 -0.148591,-0.34955 -0.25333,-0.50666 -0.345699,-0.51855 -0.474415,-0.94883 -0.75999,-1.51998 -0.321799,-0.6436 -0.302775,0.25944 -0.506661,-0.75999 -0.06624,-0.33122 0.106814,-0.69289 0,-1.01333 -0.119421,-0.35826 -0.432598,-0.64301 -0.50666,-1.01332 -0.04968,-0.24841 0.08011,-0.51966 0,-0.75999 -0.09628,-0.28884 -0.393585,-0.4773 -0.50666,-0.75999 -0.133972,-0.33493 0.08766,-0.916 0,-1.26665 -0.113224,-0.45289 -0.371174,-1.36685 -0.506661,-1.77331 -0.119421,-0.35826 -0.444576,-0.64082 -0.50666,-1.01332 -0.481458,-2.888748 0.689343,0.96337 -0.506661,-2.026642 -0.204468,-0.511171 0.174547,-1.249673 0,-1.773311 -0.05971,-0.179131 -0.193619,-0.327529 -0.25333,-0.50666 -0.199615,-0.598847 0.2878,-1.704373 0,-2.279972 -0.08444,-0.168886 -0.436534,-0.07801 -0.50666,-0.25333 -0.319779,-0.799447 0.272683,-1.968584 0,-2.786632 -0.03776,-0.113292 -0.168887,-0.168887 -0.25333,-0.25333 -0.08444,-0.337773 -0.185049,-0.671913 -0.25333,-1.013321 -0.158332,-0.791656 0.633325,0.633326 0,-1.26665 -0.07553,-0.226586 -0.374175,-0.307932 -0.506661,-0.506661 -0.140522,-0.210783 0.08011,-0.51966 0,-0.75999 -0.03776,-0.113293 -0.199923,-0.146517 -0.25333,-0.253331 -0.289174,-0.578348 -0.130098,-1.410481 -0.25333,-2.026641 -0.09711,-0.485545 -0.629717,-2.019424 -0.759991,-2.279971 -0.13616,-0.272322 -0.41038,-0.47115 -0.50666,-0.759991 -0.302784,-0.908352 0.106336,-0.666165 0.50666,-1.266651 0.203414,-0.30512 0.07127,-1.994907 0,-2.279971 0.430553,-0.685704 -0.387239,-0.655058 -0.50666,-1.013321 -0.123667,-0.371001 0.09494,-0.886906 0,-1.266651 -0.158411,-0.633646 -0.647145,-1.096241 -0.75999,-1.773311 -0.08593,-0.515606 0.271992,-1.618653 0,-2.026642 -0.132486,-0.198728 -0.431132,-0.280075 -0.506661,-0.50666 -0.319625,-0.958877 0.165337,-2.301271 0,-3.293292 -0.51387,-1.54161 -0.08216,0.02056 -0.25333,-1.519981 -0.169681,-1.527132 -0.508105,-3.048629 -0.759991,-4.559943 -0.200371,-1.202228 0,-2.579413 0,-3.799953 0,-0.675433 -0.172939,-1.841543 0,-2.533302 0.408018,-1.632069 0.757663,-3.541965 1.519982,-5.066603 -0.06599,-0.535226 0.401921,-0.09622 0.50666,-0.25333 0.148123,-0.222186 0.09311,-0.546364 0.25333,-0.759991 0.409125,-0.5455 2.533302,-1.052679 2.533302,-1.773311 0,-0.25333 0.05495,-0.512693 0,-0.759991 -0.03302,-0.148607 -0.20519,-0.235574 -0.25333,-0.379995 -0.08011,-0.24033 0.04165,-0.510107 0,-0.75999 -0.05831,-0.349858 -0.170138,-0.680553 -0.253331,-1.013321 -0.04496,-0.179822 0.06965,-0.459193 0,-0.633326 -0.07013,-0.175316 -0.193619,-0.327528 -0.25333,-0.50666 -0.08178,-0.245329 -0.06318,-1.456193 -0.126665,-1.646646 -0.03776,-0.113293 -0.208978,-0.142451 -0.25333,-0.25333 -0.09531,-0.238276 0,-2.778552 0,-3.293292 0,-0.563334 -0.09318,-1.214247 0,-1.773312 0.02195,-0.1317 0.104715,-0.248295 0.126665,-0.379995 0.03471,-0.208236 -0.09441,-0.444504 0,-0.633325 0.05341,-0.106814 0.187087,-0.153966 0.25333,-0.253331 0.0991,-0.148651 0.0542,-0.488393 0.126665,-0.633325 0.05341,-0.106813 0.208979,-0.142451 0.253331,-0.25333 0.04704,-0.117606 -0.04006,-0.25983 0,-0.379995 0.04814,-0.144421 0.196792,-0.238651 0.25333,-0.379996 0.03136,-0.0784 -0.03776,-0.177801 0,-0.25333 0.05341,-0.106813 0.191888,-0.150927 0.25333,-0.25333 0.06869,-0.11449 0.06696,-0.260574 0.126665,-0.379995 0.255703,-0.511406 0.259815,-0.293103 0.633325,-0.759991 0.176934,-0.221167 0.222887,-0.524327 0.379996,-0.75999 0.06624,-0.09936 0.187087,-0.153966 0.25333,-0.25333 0.104739,-0.157109 0.140037,-0.355604 0.25333,-0.506661 0.143305,-0.191073 0.374175,-0.307932 0.50666,-0.50666 0.04684,-0.07026 -0.01656,-0.170527 0,-0.25333 0.106126,-0.530627 0.130911,-0.261821 0.379996,-0.759991 0.611658,-1.223317 -0.163183,0.236219 0.126665,-0.633325 -0.859924,-0.964302 0.387239,-0.655058 0.50666,-1.013321 0.0267,-0.08011 -0.03136,-0.174926 0,-0.25333 0.05654,-0.141344 0.20519,-0.235575 0.25333,-0.379995 0.178528,-0.535585 -0.276084,-0.282532 0.126665,-0.886656 0.20147,-0.302205 0.659764,-0.34971 0.886656,-0.633325 0.04441,-0.05551 0.02995,-0.584968 0.379995,-0.759991 0.188821,-0.09441 0.422217,0 0.633326,0 0.893472,0 0.623235,0.292188 1.266651,0.50666 0.484388,0.161463 2.099023,-0.08243 2.406636,-0.25333 0.156589,-0.08699 0.230949,-0.280631 0.379995,-0.379995 1.126148,-0.750765 0.390254,-0.0077 1.393316,-0.759991 0.143306,-0.107478 0.242383,-0.265318 0.379996,-0.379995 0.233896,-0.194914 0.569792,-0.268913 0.75999,-0.50666 0.08341,-0.104259 0.0526,-0.268903 0.126665,-0.379995 0.165607,-0.248411 0.479722,-0.377319 0.633326,-0.633326 0.06869,-0.11449 0.04326,-0.275736 0.126665,-0.379995 0.0951,-0.118874 0.27235,-0.145686 0.379995,-0.25333 0.02985,-0.02986 -0.01888,-0.0889 0,-0.126665 0.10841,-0.216821 0.403081,-0.771534 0.633325,-0.886656 0.323091,-0.161545 1.494167,-0.107304 1.519982,-0.126665 0.121786,-0.09134 0.155873,-0.263047 0.25333,-0.379995 0.114677,-0.137613 0.272516,-0.23669 0.379995,-0.379996 0.529126,-0.705501 1.437324,-2.68197 2.153306,-3.039962 0.379565,-0.189782 1.332906,0.335826 1.646647,0.126665 0.235872,-0.157248 0.287991,-0.699225 0.50666,-0.886655 0.37632,-0.32256 1.022093,-0.720693 1.519981,-0.886656 0.08011,-0.0267 0.180921,0.04345 0.25333,0 0.059,-0.0354 0.551817,-0.465025 0.759991,-0.50666 0.720344,0 0.08339,0.05665 0.633325,-0.126665 0.01005,-0.0034 1.152046,0.51872 1.266651,0.633325 0.02985,0.02985 -0.03776,0.107783 0,0.126665 0.07553,0.03776 0.168887,0 0.25333,0 0.126665,0.04222 0.265506,0.05797 0.379995,0.126665 0.102403,0.06144 0.146517,0.199924 0.253331,0.25333 0.151912,0.07596 1.072911,0.06458 1.26665,0 0.167436,-0.05581 0.345205,-0.299267 0.506661,-0.379995 0.193358,-0.09668 0.316986,0.06301 0.50666,-0.126665 0.168887,-0.295552 0.302419,-0.614334 0.50666,-0.886655 0.05665,-0.07553 0.186572,-0.05991 0.253331,-0.126666 0.06676,-0.06676 0.07002,-0.177801 0.126665,-0.25333 0.281283,-0.375044 0.872984,-0.816487 1.266651,-1.01332 0.155706,-0.07785 0.350954,-0.04881 0.50666,-0.126666 0.896152,-0.448076 -0.473105,-0.103387 0.633325,-0.379995 0.281153,-0.07029 0.749512,0 1.013321,0 0.802212,0 1.604425,0 2.406637,0 0.168887,0 0.344271,0.0464 0.50666,0 0.146375,-0.04182 0.243834,-0.18525 0.379995,-0.25333 0.449826,-0.224913 0.938211,-0.405773 1.393316,-0.633325 0.136161,-0.06808 0.235575,-0.20519 0.379996,-0.253331 0.391792,-0.130597 1.760207,0 2.279971,0 0.717769,0 1.435538,0 2.153303,0 0.0422,0 0.11332,0.04006 0.12667,0 0.0707,-0.212015 -0.14181,-1.124638 0.37999,-1.139985 3.92492,-0.115439 7.85324,0 11.77986,0 2.99774,0 5.99548,0 8.99322,0 0.46468,0 0.43839,0.438392 0.50666,0.50666 0.0668,0.06676 0.20096,0.04811 0.25333,0.126665 0.0212,0.03183 0.0535,0.706524 0,0.759991 -0.25151,0.251508 -0.76117,0.646345 -1.13999,0.75999 -0.24599,0.0738 -0.51634,0.04545 -0.75999,0.126665 -0.26869,0.08957 -0.48674,0.305472 -0.75999,0.379995 -0.44807,0.122202 -0.92978,-0.02897 -1.39331,0 -0.4235,0.02647 -0.84273,0.108234 -1.26665,0.126666 -2.43458,0.105851 -4.91211,0 -7.34658,0 -0.21111,0 -0.43732,-0.0784 -0.63333,0 -0.75042,0.300171 -0.0613,0.25333 -0.63332,0.25333 -0.3404,0 -1.01332,-0.213737 -1.01332,0.126665 0,0.696118 0.8624,0.245246 1.26665,0.379995 0.0567,0.01888 0.0733,0.09996 0.12666,0.126665 0.43016,0.21508 0.79202,0.320665 1.26666,0.379995 0.86075,0.107595 2.25934,-0.17347 3.03996,0 1.05755,0.235012 2.01168,0.704839 3.03996,1.013321 0.20621,0.06186 0.42562,0.07002 0.63332,0.126665 0.25763,0.07026 0.49815,0.200961 0.76,0.25333 0.1656,0.03312 0.34852,-0.0593 0.50666,0 0.19766,0.07413 0.33777,0.253331 0.50666,0.379996 0.16888,0.126665 0.37478,0.215147 0.50666,0.379995 0.0527,0.06594 0,0.168887 0,0.25333 0,0.337774 0,0.675547 0,1.013321 0,0.379995 0,0.75999 0,1.139986 0,0.525558 0.0914,1.139985 -0.12667,1.139985 -0.0597,0 -0.0844,-0.08444 -0.12666,-0.126665 -0.40261,-0.402606 -0.25333,-0.133909 -0.25333,-0.886655 0,-1.11473 0.13624,-1.519981 1.39331,-1.519981 0.21111,0 0.42562,-0.03777 0.63333,0 0.54829,0.09969 1.67153,0.764085 1.89997,1.26665 0.14408,0.316962 0.20039,0.669201 0.25333,1.013321 0.0321,0.208654 0,0.422217 0,0.633326 0,0.08444 0.0597,0.193619 0,0.25333 -0.0595,0.05952 -0.7932,0.0062 -0.75999,-0.126665 0.15929,-0.637142 1.54206,-0.404034 1.89998,-0.25333 0.57454,0.241913 1.14394,0.518001 1.64665,0.886655 0.22991,0.168601 0.44778,1.411134 0.50666,1.646646 0.0229,0.09159 0.10376,0.161739 0.12666,0.25333 0.14194,0.56777 0.01,1.75349 -0.25333,2.279972 -0.0267,0.05341 -0.0844,0.08444 -0.12666,0.126665 -0.12667,0.295552 -0.27011,0.584464 -0.38,0.886656 -0.20571,0.565703 -0.17033,1.192347 -0.25333,1.773311 -0.0378,0.26435 -0.20943,0.49659 -0.25333,0.75999 -0.0493,0.2958 -0.0526,1.027641 0.12667,1.266651 0.0522,0.06965 1.6389,0.726389 1.77331,0.759991 0.66047,0.165119 1.34756,0.204825 2.02664,0.25333 0.10395,0.0074 1.13626,-0.08693 1.26665,0 0.22218,0.148124 0.15062,0.513498 0.25333,0.759991 0.43361,1.040676 0.70433,1.295713 1.39332,2.279971 0.29555,0.422217 0.5911,0.844434 0.88665,1.266651 0.0844,0.04222 0.18657,0.05991 0.25333,0.126665 0.40779,0.407792 0.20408,0.490242 0.63333,0.633325 0.30937,0.103124 1.02282,-0.198439 1.26665,0.126666 0.0801,0.106813 0.0771,0.256028 0.12666,0.379995 0.13511,0.337773 0.16931,0.21323 0.25333,0.633325 0.12095,0.604746 -0.0681,1.287271 0,1.899977 0.0238,0.213972 0.10289,0.419353 0.12667,0.633325 0.0459,0.41291 0.11851,1.278873 -0.12667,1.646646 -0.16739,0.251084 -0.76927,0.575632 -0.50666,1.013321 0.60085,1.001409 0.25358,0.190122 0.88666,0.50666 0.34879,0.174395 0.64753,0.774195 0.88665,1.013321 0.19794,0.197935 0.56512,0.217603 0.75999,0.379995 0.16218,0.135148 0.20821,0.383956 0.38,0.50666 0.21729,0.155211 0.5378,0.105207 0.75999,0.253331 0.24941,0.166276 0.0362,0.265555 0.12666,0.50666 0.0994,0.265198 0.25333,0.50666 0.38,0.759991 0.21111,0.422216 0.41118,0.850133 0.63333,1.26665 0.11585,0.217229 0.26989,0.413124 0.37999,0.633326 0.0189,0.03776 -0.0298,0.09681 0,0.126665 0.0299,0.02986 0.0905,-0.02172 0.12667,0 0.10643,0.06386 0.63783,0.450085 0.75999,0.633325 0.0308,0.04619 -0.12667,1.223906 -0.12667,1.519981 0,0.464439 0,0.928878 0,1.393316 0,0.08444 0.0378,0.177802 0,0.253331 -0.26246,0.524924 -0.5508,1.142857 -0.88665,1.646646 -0.14997,0.224945 -0.38576,0.391516 -0.50666,0.633325 -0.0963,0.192561 -0.0467,0.433434 -0.12667,0.633326 -0.0914,0.228584 -0.29355,0.402808 -0.38,0.633325 -0.089,0.2372 0.0497,0.51158 0,0.75999 -0.0185,0.09258 -0.0968,0.163765 -0.12666,0.253331 -0.0622,0.186707 -0.052,2.727841 0,3.039962 0.12738,0.764285 0.52854,0.729477 0.88666,1.266651 0.26806,0.40209 0.48148,0.876739 0.75999,1.26665 0.10411,0.145766 0.27587,0.23423 0.37999,0.379996 0.3454,0.483556 0.50666,1.194151 0.50666,1.773311 0,0.25333 0.0941,0.524779 0,0.75999 -0.38392,0.959805 -1.37375,1.216486 -2.1533,1.773312 -0.0972,0.06941 -0.15397,0.187087 -0.25334,0.25333 -0.1571,0.104739 -0.35921,0.135374 -0.50666,0.25333 -0.0623,0.04983 -0.36322,0.549464 -0.37999,0.633325 -0.0248,0.124206 0.0179,0.254604 0,0.379996 -0.10862,0.760366 -0.49266,1.491338 -0.38,2.279971 0.0246,0.172335 0.098,0.334945 0.12667,0.506661 0.0139,0.08329 -0.0528,0.187391 0,0.25333 0.004,0.0052 1.00522,0.88203 1.01332,0.886655 0.39573,0.226134 0.75999,0.04171 0.75999,0.506661 0,0.168887 0.0464,0.344271 0,0.50666 -0.10496,0.367373 -0.84788,1.276556 -1.13999,1.519981 -0.11694,0.09746 -0.27235,0.145686 -0.37999,0.25333 -0.0299,0.02986 0.0189,0.0889 0,0.126665 -0.13375,0.267507 -0.32419,0.551807 -0.38,0.886656 -0.12536,0.752212 0,1.638786 0,2.406637 0,0.772682 -0.20695,1.081151 -0.37999,1.773311 -0.0205,0.08192 0.0267,0.17322 0,0.25333 -0.13936,0.418083 -0.96462,0.954896 -1.13999,1.393316 -0.0647,0.161633 -0.0716,0.341509 -0.12666,0.50666 -0.0481,0.144421 -0.20519,0.235575 -0.25333,0.379996 -0.0267,0.08011 0.0378,0.177801 0,0.25333 -0.0189,0.03776 -0.0968,-0.02985 -0.12667,0 -0.0299,0.02985 0.0134,0.08661 0,0.126665 -0.0299,0.08957 -0.0743,0.174776 -0.12666,0.25333 -0.21563,0.323448 -0.63215,0.949398 -1.01332,1.139986 -0.0378,0.01888 -0.0889,-0.01888 -0.12667,0 -0.24849,0.124244 0.01,0.25333 -0.25333,0.25333 -1.1086,-0.566989 -0.80593,0.80229 -1.30596,1.052307 -0.10682,0.05341 -0.27382,-0.08444 -0.35827,0 -0.0422,0.04222 0.0422,0.13691 0,0.179132 -0.0422,0.04222 -0.12572,-0.0267 -0.17913,0 -0.3464,0.1732 -0.17913,0.975185 -0.17913,1.25392 0,0.322087 -0.10125,0.950182 0,1.25392 0.0619,0.185548 0.26941,0.359684 0.35826,0.537395 0.0267,0.05341 -0.0422,0.13691 0,0.179131 0.0747,0.07466 0.51997,0.03485 0.35827,0.358263 -0.1147,0.2294 -1.22548,1.38616 -1.43306,1.074789 -0.21829,-0.327439 -0.67662,-2.26928 -0.53739,-2.686972 0.0267,-0.08011 0.16257,-0.09633 0.17913,-0.179132 0.0468,-0.234203 -0.0755,-0.48994 0,-0.716525 0.0534,-0.160221 0.28273,-0.207207 0.35826,-0.358263 0.0896,-0.179132 -0.0448,-0.358263 0,-0.537395 0.0458,-0.183183 0.0947,-0.368508 0.17913,-0.537394 0.0378,-0.07553 0.16258,-0.09633 0.17914,-0.179132 0.16925,-0.846256 0,-2.158072 0,-3.045235 0,-0.634961 0.18231,-1.960896 0,-2.507841 -0.0681,-0.204241 -0.30605,-0.328533 -0.35827,-0.537394 -0.0434,-0.173783 0.0294,-0.360701 0,-0.537395 -0.0673,-0.403942 -0.25884,-0.856231 -0.35826,-1.25392 -0.0687,-0.274816 0.0894,-0.627394 0,-0.895658 -0.15746,-0.472374 -0.25795,-0.931467 -0.35826,-1.433051 -0.0703,-0.351306 0.0589,-0.721401 0,-1.074789 -0.022,-0.1317 -0.15295,-0.227339 -0.17913,-0.358263 -0.0703,-0.351306 0.0703,-0.723483 0,-1.074789 -0.0524,-0.261848 -0.2935,-0.457466 -0.35827,-0.716526 -0.0702,-0.280991 0.0703,-0.614667 0,-0.895658 -0.14925,-0.596996 -0.16115,-1.199984 -0.35826,-1.791314 -0.13271,-0.398144 -0.2504,-0.643318 -0.35826,-1.074789 -0.084,-0.336176 -0.084,-1.147669 -0.17913,-1.433052 -0.17989,-0.539656 -0.34294,-0.68588 -0.5374,-1.074789 -0.14552,-0.291044 -0.0733,-1.042294 -0.17913,-1.25392 -0.0267,-0.05341 -0.12573,0.0267 -0.17913,0 -0.15106,-0.07553 -0.30486,-0.198043 -0.35827,-0.358263 -0.0378,-0.113293 0.0196,-0.240467 0,-0.358263 -0.0405,-0.242843 -0.13084,-0.475115 -0.17913,-0.716526 -0.19469,-0.973488 0.14052,-2.061648 0,-3.045236 -0.0267,-0.186923 -0.1421,-0.35224 -0.17913,-0.537394 -0.30333,-1.516647 -0.0378,-0.867794 -0.35826,-2.149578 -0.0696,-0.278209 -0.31048,-0.788069 -0.35826,-1.074789 -0.0393,-0.235592 0.0393,-0.480933 0,-0.716526 -0.0572,-0.343443 -0.44207,-0.609673 -0.5374,-0.895657 -0.0566,-0.169939 0.12667,-0.410729 0,-0.537395 -0.53452,-0.534524 -0.51179,-0.10232 -0.71652,-0.716525 -0.0896,-0.268698 0.17913,-0.179132 0,-0.537395 -0.0267,-0.05341 -0.13691,0.04222 -0.17914,0 -0.0844,-0.08444 0.029,-0.242407 0,-0.358263 -0.45246,-1.809875 0.0647,0.129367 -0.35826,-0.716526 -0.54095,-1.081911 0.0258,-0.07584 -0.17913,-0.895657 -0.11959,-0.478342 -0.41693,-0.951177 -0.53739,-1.433052 -0.0579,-0.231711 0.0887,-0.494767 0,-0.716526 -0.08,-0.199891 -0.26199,-0.344834 -0.35827,-0.537394 -0.14467,-0.289336 0.10371,-0.763668 0,-1.074789 -0.0534,-0.16022 -0.28273,-0.207206 -0.35826,-0.358263 -0.11292,-0.225839 -0.059,-0.655391 -0.17913,-0.895658 -0.0963,-0.19256 -0.20603,-0.385162 -0.35827,-0.537394 -0.23884,-0.238842 -0.17188,0.379995 -0.35826,-0.179132 -0.0378,-0.113292 0.0534,-0.251449 0,-0.358263 -0.0267,-0.05341 -0.12572,0.0267 -0.17913,0 -0.0755,-0.03776 -0.13229,-0.10887 -0.17913,-0.179131 -0.0741,-0.111093 -0.13691,-0.231598 -0.17913,-0.358263 -0.0189,-0.05665 0.0422,-0.13691 0,-0.179132 -0.0422,-0.04222 -0.13691,0.04222 -0.17913,0 -0.0422,-0.04222 0.0422,-0.136909 0,-0.179131 -0.0422,-0.04222 -0.12573,0.0267 -0.17914,0 -0.0755,-0.03776 -0.11942,-0.119421 -0.17913,-0.179132 -0.23884,-0.05971 -0.48794,-0.0877 -0.71652,-0.179131 -0.0784,-0.03136 -0.11942,-0.119421 -0.17913,-0.179132 -0.11943,-0.05971 -0.2316,-0.136909 -0.35827,-0.179131 -0.21548,-0.07183 -1.27706,-0.140134 -1.43305,-0.179131 -0.63724,-0.159311 -1.18583,-0.514698 -1.79131,-0.716526 -0.0566,-0.01888 -0.11943,0 -0.17914,0 -0.11942,0 -0.24497,0.03776 -0.35826,0 -0.0801,-0.0267 -0.0972,-0.158651 -0.17913,-0.179132 -0.45421,-0.113553 -1.14172,0 -1.61218,0 -1.31363,0 -2.62727,0 -3.9409,0 -0.70698,0 -3.83986,-0.153097 -4.29915,0 -0.12667,0.04222 -0.22734,0.152947 -0.35826,0.179132 -0.29776,0.05955 -0.97154,-0.141192 -1.25392,0 -0.15106,0.07553 -0.21775,0.264581 -0.35827,0.358263 -0.0497,0.03312 -0.12572,-0.0267 -0.17913,0 -0.30411,0.152057 -0.68369,0.398571 -0.89566,0.716525 -0.0331,0.04968 0.0422,0.13691 0,0.179132 -0.24165,0.241651 -1.06125,0.689445 -1.25392,1.074789 -0.0534,0.106813 0.0378,0.24497 0,0.358263 -0.0534,0.16022 -0.28273,0.207206 -0.35826,0.358263 -0.12354,0.247086 0.21694,0.160228 -0.17913,0.358263 -0.0534,0.0267 -0.13691,-0.04222 -0.17913,0 -0.0422,0.04222 0,0.119421 0,0.179131 -0.11942,0.119421 -0.21774,0.264582 -0.35827,0.358263 -0.0497,0.03312 -0.13691,-0.04222 -0.17913,0 -0.0944,0.09441 -0.0597,0.298553 -0.17913,0.358263 -0.16022,0.08011 -0.36745,-0.05665 -0.53739,0 -0.169112,0.05637 -0.642135,0.49514 -0.895661,0.537395 -0.51849,0.08641 -1.813632,0.128769 -2.328709,0 -0.298477,-0.07462 -0.260279,-0.577969 -0.537395,-0.716526 -0.09549,-0.04775 -1.022632,-0.300441 -1.25392,-0.358263 -0.115855,-0.02896 -0.24497,0.03776 -0.358263,0 -0.08011,-0.0267 -0.09902,-0.152428 -0.179132,-0.179132 -0.113292,-0.03776 -0.247383,0.04435 -0.358262,0 -0.788363,-0.315345 -0.250834,-0.419686 -1.074789,-0.537394 -0.359321,-0.05133 -1.046335,0 -1.433052,0 -1.313631,0 -2.627262,0 -3.940893,0 -0.08041,0 -2.149431,-1.47e-4 -2.149578,0 -0.04222,0.04222 0.04222,0.13691 0,0.179131 -0.04222,0.04222 -0.136909,-0.04222 -0.179131,0 -0.04222,0.04222 0.04222,0.13691 0,0.179132 -0.234856,0.234856 -1.210564,0.247019 -1.433052,0.358263 -0.151057,0.07553 -0.207206,0.282734 -0.358263,0.358263 -2.076044,1.038022 0.132932,-0.223442 -1.074789,0.179131 -0.379995,0.126665 -0.686198,0.440247 -1.074789,0.537395 -0.457953,0.114488 -0.452146,-0.116543 -0.895657,0.179131 -0.227546,0.151697 -0.595491,0.474456 -0.716526,0.716526 -0.0267,0.05341 0.04968,0.14601 0,0.179132 -0.157109,0.104739 -0.368508,0.09469 -0.537395,0.179131 -0.286883,0.143442 -0.447401,0.53711 -0.716526,0.716526 -0.111092,0.07406 -0.263852,0.08472 -0.358263,0.179131 -0.04222,0.04222 0.05341,0.152429 0,0.179132 -0.106813,0.05341 -0.24497,-0.03776 -0.358263,0 -0.235119,0.07837 -0.496829,0.405577 -0.716525,0.537394 -0.666004,0.399602 -1.350295,0.788807 -1.970447,1.253921 -0.135109,0.101332 -0.21774,0.264581 -0.358263,0.358263 -0.04968,0.03312 -0.125725,-0.0267 -0.179131,0 -0.09694,0.04847 -0.503676,0.436238 -0.537395,0.537394 -0.03776,0.113293 0.03776,0.24497 0,0.358263 -0.07336,0.22009 -0.607061,0.552329 -0.716526,0.716526 -0.176273,0.264411 -0.06024,0.837011 -0.179131,1.074789 -0.05971,0.119421 -0.284201,0.06804 -0.358263,0.179131 -0.358263,0.537395 0.179131,0.179132 0,0.537395 -0.03776,0.07553 -0.141367,0.103603 -0.179132,0.179131 -0.07165,0.143306 0.07165,0.39409 0,0.537395 -0.141797,0.283594 -0.539854,0.451519 -0.716525,0.716526 -0.394656,0.09021 -0.09469,0.368507 -0.179132,0.537394 -0.07553,0.151057 -0.282734,0.207206 -0.358263,0.358263 -0.09185,0.183693 -0.08729,0.532833 -0.179131,0.716526 -0.03777,0.07553 -0.152429,0.09902 -0.179132,0.179132 -0.03776,0.113292 0.06624,0.258898 0,0.358263 -0.07406,0.111092 -0.284201,0.06804 -0.358263,0.179131 -0.01554,0.02331 -0.156945,0.851286 -0.179131,0.895657 -0.07553,0.151057 -0.282735,0.207207 -0.358263,0.358263 -0.05341,0.106814 0.05341,0.25145 0,0.358263 -0.0267,0.05341 -0.125725,-0.0267 -0.179132,0 -0.11836,0.05918 -0.303639,0.428147 -0.358263,0.537395 -0.05341,0.106813 0.05341,0.251449 0,0.358263 -0.03776,0.07553 -0.152428,0.09902 -0.179131,0.179131 -0.07936,0.238073 0.113721,0.668216 0,0.895658 -0.03776,0.07553 -0.152428,0.09902 -0.179132,0.179131 -0.09012,0.270352 0,0.779205 0,1.074789 0,0.169875 0.108176,0.966613 0,1.074789 -0.238842,0.238842 -0.179131,-0.298552 -0.179131,0.179132 0.238842,0.537394 0.573895,1.041661 0.716526,1.612183 0.06775,0.27102 -0.46902,1.159553 -0.537395,1.433052 -0.06829,0.273166 -0.02272,0.661047 -0.179131,0.895657 -0.09368,0.140522 -0.282735,0.207206 -0.358263,0.358263 -0.124032,0.248063 0,1.442093 0,1.791315 0,1.552473 0,3.104946 0,4.657419 0.492348,0.502106 -0.186421,1.232051 0,1.791314 0.0267,0.08011 0.152428,0.09902 0.179131,0.179132 0.141694,0.425082 0,1.147091 0,1.612183 0,1.433052 0,2.866104 0,4.299156 0,0.432696 -0.104446,1.015267 0,1.433052 0.0458,0.183183 0.133336,0.354211 0.179132,0.537394 0.178143,0.712572 -0.232018,1.632655 0,2.328709 0.0267,0.08011 0.141367,0.103603 0.179131,0.179132 0.113676,0.227352 0,0.835907 0,1.074789 0,0.43669 0.154008,1.227164 0,1.612183 -0.64657,0.646571 -0.271258,0.102372 -0.358263,0.537395 -0.128389,0.641947 -0.390567,2.052665 -0.179131,2.686972 0.0267,0.08011 0.141367,0.103603 0.179131,0.179131 0.08863,0.177255 0.639442,1.510136 0.358263,1.791315 -0.142976,0.142977 -1.59634,-0.863971 -1.791315,-1.25392 -0.09554,-0.191074 0.177332,-0.239442 -0.179131,-0.358263 -0.113293,-0.03776 -0.25145,0.05341 -0.358263,0 -0.05341,-0.0267 0.03312,-0.129449 0,-0.179132 -0.09368,-0.140522 -0.256931,-0.223153 -0.358263,-0.358263 -0.325663,-0.434217 -0.480248,-0.960495 -0.716526,-1.433051 -0.107479,-0.214958 -0.429915,-0.322437 -0.537394,-0.537395 -0.0267,-0.05341 0.04222,-0.13691 0,-0.179131 -0.319043,-0.319043 -1.601636,-0.271335 -1.970447,-0.179132 -0.31195,0.07799 -0.580351,0.295202 -0.895657,0.358263 -0.175653,0.03513 -0.363612,-0.04345 -0.537395,0 -0.208861,0.05222 -0.333153,0.290183 -0.537394,0.358263 -0.05665,0.01888 -0.13691,-0.04222 -0.179132,0 -0.04222,0.04222 0.04222,0.13691 0,0.179132 -0.04222,0.04222 -0.125724,-0.0267 -0.179131,0 -0.274354,0.137176 -0.140084,0.319215 -0.358263,0.537394 -0.04222,0.04222 -0.13691,-0.04222 -0.179131,0 -0.01457,0.01457 0,1.457305 0,1.612183 0,0.651746 -0.158286,1.516435 0,2.149578 0.122068,0.488275 0.259701,0.940246 0.358263,1.433052 0.03513,0.175653 -0.09936,0.388348 0,0.537394 0.09368,0.140523 0.264581,0.217741 0.358262,0.358264 0.082,0.12299 -0.03855,0.60088 0,0.71653 0.0267,0.0801 0.152429,0.099 0.179132,0.17913 0.197045,0.59113 -0.197045,1.37931 0,1.97044 0.112253,0.33676 0.179131,0.0811 0.179131,0.71653 0,0.40991 -0.03776,0.46187 0.179132,0.89566 0.03776,0.0755 0.152428,0.099 0.179131,0.17913 0.03777,0.11329 -0.03776,0.24497 0,0.35826 0.0267,0.0801 0.152429,0.099 0.179132,0.17913 0.03776,0.1133 -0.03776,0.24497 0,0.35827 0.341319,1.02395 0.0342,-1.08291 0.358263,0.53739 0,1.91922 -0.126665,-0.20086 0.179131,0.71653 0.08367,0.251 -0.08367,0.82378 0,1.07478 0.05341,0.16022 0.264582,0.21775 0.358263,0.35827 0.0079,0.0118 0.114612,1.30401 0.179132,1.43305 0.07553,0.15106 0.282734,0.20721 0.358263,0.35826 0.05341,0.10682 -0.03776,0.24497 0,0.35827 0.104396,0.31318 0.564906,0.59241 0.716526,0.89565 0.119421,0.23884 0.238842,0.47769 0.358263,0.71653 0.05341,0.10681 -0.08444,0.27382 0,0.35826 0.04222,0.0422 0.136909,-0.0422 0.179131,0 0.04222,0.0422 -0.0267,0.12573 0,0.17913 0.113293,0.22659 0.326611,0.39688 0.537395,0.5374 0.09936,0.0662 0.258898,-0.0662 0.358263,0 0.140522,0.0937 0.213443,0.27137 0.358263,0.35826 0.174888,0.10493 0.714404,0.17701 0.895657,0.35826 0.04222,0.0422 -0.04222,0.13691 0,0.17914 0.375484,0.37548 1.019708,0.50985 1.433052,0.71652 0.745502,0.37275 -0.191498,-0.0124 0.179131,0.35826 0.04222,0.0422 0.125725,-0.0267 0.179132,0 0.07553,0.0378 0.103603,0.14137 0.179131,0.17914 0.16022,0.0801 0.367456,-0.0567 0.537395,0 0.559126,0.18637 -0.05971,0.11942 0.179131,0.35826 0.08444,0.0844 0.25145,-0.0534 0.358263,0 0.07553,0.0378 0.09902,0.15243 0.179132,0.17913 0.360714,0.12024 3.039562,0.006 3.224366,-0.17913 0.04222,-0.0422 -0.04968,-0.14601 0,-0.17913 0.157109,-0.10474 0.386338,-0.0658 0.537395,-0.17913 0.106813,-0.0801 0.10507,-0.24717 0.179131,-0.35827 0.09368,-0.14052 0.317302,-0.19442 0.358263,-0.35826 0.101499,-0.406 0.08552,-2.42232 -0.179131,-2.68697 -0.04222,-0.0422 -0.119421,0 -0.179132,0 -0.119421,-0.11942 -0.264581,-0.21774 -0.358263,-0.35827 -0.136481,-0.20472 0.235236,-0.22014 -0.179131,-0.35826 -0.819409,-0.27313 0.185612,0.46963 -0.895658,-0.17913 -0.144819,-0.0869 -0.207206,-0.28273 -0.358263,-0.35826 -0.16022,-0.0801 -0.377174,0.0801 -0.537394,0 -0.3723,-0.18615 -0.852865,-0.58284 -1.25392,-0.71653 -0.169939,-0.0566 -0.371075,0.0665 -0.537395,0 -0.156807,-0.0627 -0.207206,-0.28273 -0.358263,-0.35826 -0.106813,-0.0534 -0.24497,0.0378 -0.358263,0 -0.08011,-0.0267 -0.106722,-0.13569 -0.179131,-0.17913 -0.22898,-0.13739 -0.468592,-0.25909 -0.716526,-0.35827 -0.350632,-0.14025 -0.737015,-0.18937 -1.074789,-0.35826 -0.151057,-0.0755 -0.207206,-0.28273 -0.358263,-0.35826 -0.106813,-0.0534 -0.243437,0.0328 -0.358263,0 -0.243176,-0.0695 -1.15793,-0.44141 -1.433052,-0.71653 -0.09441,-0.0944 -0.08472,-0.26385 -0.179131,-0.35826 -0.09441,-0.0944 -0.25145,-0.099 -0.358263,-0.17913 -0.297085,-0.22282 -0.552194,-0.74613 -0.716526,-1.07479 -0.238596,-0.47719 0.170346,-1.28028 0,-1.79132 -0.07689,-0.23067 -0.460503,-0.48585 -0.537395,-0.71652 -0.03776,-0.1133 0.05341,-0.25145 0,-0.35827 -0.0267,-0.0534 -0.136909,0.0422 -0.179131,0 -0.09441,-0.0944 -0.10507,-0.24717 -0.179132,-0.35826 -0.04684,-0.0703 -0.152428,-0.099 -0.179131,-0.17913 -0.07553,-0.22659 0.04684,-0.48232 0,-0.71653 -0.1752,-0.87599 -0.263978,-1.86672 -0.537395,-2.686968 -0.176982,-0.530947 0,-1.539923 0,-2.149578 0,-0.185288 0.174793,-1.073342 0.179132,-1.074789 0.169939,-0.05665 0.3607,-0.02945 0.537394,0 0.646608,0.107768 0.788446,0.523278 1.253921,0.895658 0.582581,0.466065 1.61223,0.895752 1.970446,1.612183 0.110101,0.220202 0.06903,0.496325 0.179132,0.716526 0.27818,0.55636 0.790894,1.044398 1.074788,1.612188 0.186924,0.37384 -0.109976,0.85067 0,1.25392 0.09161,0.3359 0.381689,0.58424 0.537395,0.89565 0.274593,0.54919 -0.02135,1.11098 0.179131,1.61219 0.09917,0.24793 0.27382,0.46319 0.358263,0.71652 0.04833,0.14499 0.08107,1.49058 0,1.61219 -0.05703,0.0855 -0.957144,0.0294 -1.074789,0 -1.005286,-0.25133 -0.998162,-0.76829 -1.25392,-1.79132 -0.126205,-0.50482 -0.518892,-2.16808 0,-2.68697 0.140032,-0.14003 0.779065,-0.31163 0.895657,-0.35826 0.514588,-0.20584 0.178721,-0.17914 0.537395,-0.17914 0.298552,0 0.684549,-0.2111 0.895657,0 0.174085,0.17409 0.0877,0.48795 0.179132,0.71653 0.110879,0.2772 0.403878,0.44949 0.537394,0.71653 0.265119,0.53023 0.316593,1.23931 0.537395,1.79131 0.345354,0.86339 1.115339,1.40431 1.612183,2.14958 0.03312,0.0497 -0.03312,0.12945 0,0.17913 0.140522,0.21078 0.424102,0.31081 0.537395,0.53739 0.1101,0.22021 0.06903,0.49633 0.179131,0.71653 0.12396,0.24792 0.367142,0.66865 0.537394,0.89566 0.101333,0.13511 0.282735,0.2072 0.358263,0.35826 0.179132,0.35826 -0.08957,0.2687 0,0.5374 0.136169,0.4085 0.292571,0.88668 0.537395,1.25392 0.04684,0.0703 0.158651,0.0972 0.179131,0.17913 0.04345,0.17378 -0.03513,0.36174 0,0.53739 0.09277,0.46386 0.163224,0.24484 0.358263,0.5374 0.223646,0.33546 0.134618,0.56019 0.358263,0.89565 0.273272,0.40991 0.141795,-0.11201 0.358263,0.5374 0.139104,0.41731 0.326803,0.6536 0.537395,1.07479 0.09183,0.18366 -0.05039,0.51497 0,0.71652 0.11417,0.45668 0.214686,0.82319 0.358263,1.25392 0.09025,0.27077 -0.06954,0.61751 0,0.89566 0.02576,0.10303 0.355745,0.89818 0.179131,1.07479 -0.04742,0.0474 -0.463634,0 -0.537394,0 -0.273355,0 -0.791635,-0.0462 -0.895658,-0.35826 -0.03776,-0.1133 0.05341,-0.25145 0,-0.35827 -0.133516,-0.26703 -0.38379,-0.46052 -0.537394,-0.71652 -0.131886,-0.21981 -0.07499,-0.68738 -0.179132,-0.89566 -0.0267,-0.0534 -0.125724,0.0267 -0.179131,0 -0.07553,-0.0378 -0.119421,-0.23884 -0.179132,-0.17913 -0.08444,0.0844 0.04017,0.2458 0,0.35826 -0.261076,0.73102 -0.565138,1.44723 -0.895657,2.14958 -0.148249,0.31503 -0.344265,0.60596 -0.537394,0.89566 -0.04684,0.0703 -0.179132,0.0947 -0.179132,0.17913 0,0.34722 1.148877,0.96974 1.433052,1.25392 0.104568,0.10457 0.96266,1.26486 1.074789,1.43305 0.03312,0.0497 -0.01888,0.12249 0,0.17913 0.04222,0.12667 0.13691,0.2316 0.179131,0.35827 0.158166,0.47449 -0.185408,1.14866 0,1.61218 0.06272,0.15681 0.282735,0.2072 0.358263,0.35826 0.141192,0.28239 -0.05955,0.95616 0,1.25392 0.02618,0.13093 0.152947,0.22734 0.179132,0.35826 0.04684,0.23421 -0.106814,0.5029 0,0.71653 0.09628,0.19256 0.278306,0.3375 0.358263,0.5374 0.103825,0.25956 0.07446,2.52996 0.179131,2.68697 0.09368,0.14052 0.29554,0.20145 0.358263,0.35826 0.226586,0.20207 -0.07553,0.48994 0,0.71653 0.20728,0.62184 0.330115,0.0947 0.537395,0.71652 0.03776,0.1133 -0.08444,0.27382 0,0.35827 0.04222,0.0422 0.14601,-0.0497 0.179131,0 0.104739,0.1571 0.06118,0.38995 0.179132,0.53739 0.13449,0.16811 0.369281,0.22377 0.537394,0.35826 0.749247,0.5994 1.384532,1.39666 2.149578,1.97045 0.119497,0.0896 0.697411,0.2261 0.895657,0.35826 0.07026,0.0468 0.141368,0.10361 0.179132,0.17913 0.0267,0.0534 -0.05341,0.15243 0,0.17914 0.106813,0.0534 0.241161,-0.0234 0.358263,0 0.428679,0.0857 0.683391,0.22779 1.074789,0.35826 0.215824,0.0719 0.494575,-0.0555 0.716526,0 1.153408,0.28835 2.38494,0.17913 3.582629,0.17913 0.489206,0 -0.06676,-0.0267 0.895658,0.35826 0.309937,0.12398 0.747506,-0.0818 1.074789,0 0.12953,0.0324 0.231597,0.13691 0.358263,0.17913 0.113292,0.0378 0.238841,0 0.358262,0 0.05971,0 0.193614,0.0579 0.179132,0 -0.238436,-0.95374 -0.553652,-1.45472 -1.074789,-2.14957 -0.202664,-0.27022 -0.565469,-0.41442 -0.716526,-0.71653 -0.05341,-0.10681 0.05341,-0.25145 0,-0.35826 -0.07553,-0.15106 -0.264581,-0.21774 -0.358263,-0.35827 -0.148123,-0.22218 -0.259089,-0.46859 -0.358263,-0.71652 -0.02218,-0.0554 0.04222,-0.13691 0,-0.17913 -0.09441,-0.0944 -0.284201,-0.068 -0.358263,-0.17913 -0.05235,-0.0785 0,-0.57831 0,-0.71653 0,-0.23884 0.03927,-0.48093 0,-0.71653 -0.05441,-0.32643 -0.501148,-0.65077 0.179132,-0.53739 0.242843,0.0405 0.491552,0.0791 0.716526,0.17913 0.973176,0.43252 2.519406,1.67575 3.403498,1.97045 0.226585,0.0755 0.486873,-0.0656 0.716526,0 0.431289,0.12322 1.1785,0.75109 1.612183,0.89565 0.169939,0.0567 0.371075,-0.0665 0.537395,0 0.156807,0.0627 0.207206,0.28274 0.358263,0.35827 0.258733,0.12936 0.816055,0.0498 1.074788,0.17913 0.151057,0.0755 0.207206,0.28273 0.358263,0.35826 0.226308,0.11316 2.286322,0.0369 2.507841,0 0.695274,-0.11588 1.753274,-0.46408 2.328713,-0.89566 0.13511,-0.10133 0.20145,-0.29554 0.35826,-0.35826 0.16632,-0.0665 0.37107,0.0665 0.53739,0 0.23522,-0.0941 0.29707,-0.45728 0.5374,-0.53739 0.28884,-0.0963 0.60291,-0.0955 0.89566,-0.17913 0.25675,-0.0734 0.45746,-0.2935 0.71652,-0.35827 0.11586,-0.029 0.25145,0.0534 0.35826,0 0.15106,-0.0755 0.20721,-0.28273 0.35827,-0.35826 0.10681,-0.0534 0.25145,0.0534 0.35826,0 0.15106,-0.0755 0.20721,-0.28273 0.35826,-0.35826 0.16022,-0.0801 0.37718,0.0801 0.5374,0 0.19256,-0.0963 0.3375,-0.27831 0.53739,-0.35827 0.2772,-0.11088 0.60291,0.0585 0.89566,0 0.36726,-0.0735 1.1232,-0.53739 1.43305,-0.53739 0.48796,0 -0.0624,2.62451 0.17913,2.8661 0.0845,0.0845 0.2589,-0.0662 0.35827,0 0.14052,0.0937 0.2072,0.28274 0.35826,0.35827 0.29706,0.14853 0.94008,-0.0785 1.25392,0 0.0819,0.0205 0.10073,0.14777 0.17913,0.17913 0.22859,0.0914 0.49633,0.069 0.71653,0.17913 0.0534,0.0267 -0.0422,0.13691 0,0.17913 0.0844,0.0844 0.23884,0 0.35826,0 0.37221,0 1.2764,0.16789 1.61218,0 0.32319,-0.16159 0.58153,-0.55946 0.89566,-0.71653 0.0534,-0.0267 0.12573,0.0267 0.17913,0 0.26704,-0.13351 0.44949,-0.40387 0.71653,-0.53739 0.0534,-0.0267 0.12945,0.0331 0.17913,0 0.25251,-0.16834 0.57371,-0.80045 0.71653,-0.89566 0.0994,-0.0662 0.25889,0.0662 0.35826,0 0.50439,-0.0111 0.0456,-0.40388 0.17913,-0.53739 0.0944,-0.0944 0.25689,-0.0922 0.35826,-0.17913 0.4488,-0.38469 0.80512,-0.86924 1.25392,-1.25392 0.51691,-0.44307 1.09528,-0.81086 1.61219,-1.25392 0.19234,-0.16487 0.33473,-0.3854 0.53739,-0.5374 0.0478,-0.0358 0.12945,0.0331 0.17913,0 0.29692,-0.19794 1.63495,-1.47857 1.79132,-1.79131 0.0267,-0.0534 -0.0422,-0.13691 0,-0.17914 0.0944,-0.0944 0.26385,-0.0847 0.35826,-0.17913 0.0422,-0.0422 -0.0358,-0.13136 0,-0.17913 0.94771,-1.26361 0.25761,0.0222 0.71653,-0.89566 0.18905,-0.3781 0.49335,-0.56089 0.71652,-0.89565 0.0597,-0.11942 0.11942,-0.23884 0.17913,-0.35827 0,-0.0597 -0.0267,-0.12572 0,-0.17913 0.65076,-1.30151 0.0501,0.10403 0.71653,-0.89565 0.0773,-0.11595 0.10184,-0.42146 0.17913,-0.5374 0.0937,-0.14052 0.29554,-0.20145 0.35826,-0.35826 0.13205,-0.33012 0.005,-0.90572 0.17914,-1.25392 0.0378,-0.0755 0.15242,-0.099 0.17913,-0.17913 0.0378,-0.1133 -0.029,-0.24241 0,-0.35827 0.0324,-0.12953 0.14675,-0.22873 0.17913,-0.35826 0.0434,-0.17378 -0.0566,-0.36746 0,-0.53739 0.0597,-0.17914 0.0947,-0.36851 0.17913,-0.5374 0.0378,-0.0755 0.16525,-0.0958 0.17913,-0.17913 0.0491,-0.29449 -0.0491,-0.60117 0,-0.89566 0.0139,-0.0833 0.15243,-0.099 0.17913,-0.17913 0.0378,-0.11329 -0.0378,-0.24497 0,-0.35826 0.0267,-0.0801 0.15243,-0.099 0.17913,-0.17913 0.0567,-0.16994 -0.0566,-0.36746 0,-0.5374 0.0845,-0.25333 0.2935,-0.45746 0.35827,-0.71652 0.0603,-0.24141 0.10429,-1.28337 0.17913,-1.43306 0.0963,-0.19256 0.27346,-0.33951 0.35826,-0.53739 0.097,-0.22629 0.069,-0.49632 0.17913,-0.71653 0.0755,-0.15105 0.26458,-0.21774 0.35827,-0.35826 0.0971,-0.14568 0,-0.723 0,-0.89566 0,-0.28565 -0.12414,-0.82652 0,-1.07479 0.0378,-0.0755 0.14136,-0.1036 0.17913,-0.17913 0.0949,-0.18982 -0.0677,-0.51355 0,-0.71652 0.0422,-0.12667 0.14675,-0.22874 0.17913,-0.35827 0.0435,-0.17378 -0.0801,-0.37717 0,-0.53739 0.0378,-0.0755 0.15243,-0.099 0.17913,-0.17913 0.0838,-0.25141 -0.11795,-0.65976 0,-0.89566 0.0378,-0.0755 0.14137,-0.1036 0.17913,-0.17913 0.0487,-0.0974 0.027,-0.84169 0,-0.89566 -0.0267,-0.0534 -0.13691,0.0422 -0.17913,0 -0.0422,-0.0422 0.0422,-0.13691 0,-0.17913 -0.0422,-0.0422 -0.11942,0 -0.17913,0 -0.51496,0 -0.52949,0.16332 -0.71653,0.53739 -0.0378,0.0755 -0.15242,0.099 -0.17913,0.17914 -0.0378,0.11329 0.0534,0.25145 0,0.35826 -0.0755,0.15106 -0.25693,0.22315 -0.35826,0.35826 -0.41473,0.55298 -0.75554,1.29294 -1.25392,1.79132 -0.15223,0.15223 -0.37201,0.22044 -0.5374,0.35826 -0.32435,0.2703 -0.6319,0.56596 -0.89565,0.89566 -0.13449,0.16811 -0.19824,0.39337 -0.35827,0.53739 -0.44382,0.39944 -0.95536,0.71653 -1.43305,1.07479 -0.99352,0.74514 -2.07531,1.37364 -3.04523,2.14958 -0.19782,0.15825 -0.33743,0.38186 -0.5374,0.53739 -1.30792,1.01728 -2.81677,1.94578 -4.29915,2.68698 -0.16889,0.0844 -0.36851,0.0947 -0.5374,0.17913 -2.44041,1.2202 0.48797,-0.1253 -1.61218,1.07479 -0.16394,0.0937 -0.36384,0.10475 -0.5374,0.17913 -2.19833,0.94214 0.54509,-0.18298 -1.25392,0.71652 -0.45114,0.22558 -1.09905,0.45188 -1.61218,0.5374 -0.1178,0.0196 -0.24738,-0.0443 -0.35826,0 -0.19989,0.0799 -0.34484,0.26198 -0.5374,0.35826 -0.40779,0.2039 -2.38847,0.83595 -2.8661,0.89566 -0.12774,0.016 -4.24119,0.11855 -4.47829,0 -0.48847,-0.24424 -0.983452,-0.55846 -1.433049,-0.89566 -0.468302,-0.35123 -0.489969,-1.08355 -0.716526,-1.61218 -0.10519,-0.24545 -0.198043,-0.5029 -0.358263,-0.71653 -0.101332,-0.13511 -0.282735,-0.2072 -0.358263,-0.35826 -0.05341,-0.10682 0.03776,-0.24497 0,-0.35826 -0.111774,-0.33533 -0.582957,-0.74087 -0.716526,-1.07479 -0.0887,-0.22176 0.106813,-0.5029 0,-0.71653 -0.281443,-0.56288 -0.418105,-0.12008 -0.537395,-0.71653 -0.03513,-0.17565 0.06653,-0.37107 0,-0.53739 -0.06272,-0.15681 -0.264581,-0.21774 -0.358263,-0.35826 -0.03312,-0.0497 0,-0.11942 0,-0.17913 -0.05971,-0.11943 -0.09902,-0.25145 -0.179131,-0.35827 -0.101332,-0.13511 -0.282735,-0.2072 -0.358263,-0.35826 -0.05341,-0.10681 0.02896,-0.24241 0,-0.35826 -0.0877,-0.35081 -0.390221,-0.60131 -0.537395,-0.89566 -0.07016,-0.14033 -0.12688,-0.81728 -0.179131,-0.89566 -0.09368,-0.14052 -0.264582,-0.21774 -0.358263,-0.35826 -0.212283,-0.31843 0.297893,-0.11876 0.358263,-0.17913 0.161643,-0.16165 -0.06198,-0.82688 0,-1.07479 0.06776,-0.27106 0.290499,-0.6246 0.358263,-0.89566 0.02896,-0.11585 -0.05341,-0.25145 0,-0.35826 0.146606,-0.29321 0.390788,-0.60245 0.537394,-0.89566 0.05341,-0.10681 -0.06624,-0.2589 0,-0.35826 0.09368,-0.14052 0.264582,-0.21774 0.358263,-0.35827 0.03312,-0.0497 -0.01888,-0.12248 0,-0.17913 0.05475,-0.16424 0.602095,-0.96035 0.716526,-1.07479 0.09441,-0.0944 0.278153,-0.0723 0.358263,-0.17913 0.113293,-0.15105 0.06584,-0.38633 0.179132,-0.53739 0.155078,-0.20677 0.543896,-0.27845 0.716526,-0.5374 0.197851,-0.29677 0.369564,-0.72217 0.716526,-0.89565 0.406733,-0.20337 0.812756,-0.42711 1.253922,-0.5374 0.17378,-0.0434 0.36745,0.0567 0.53739,0 0.12667,-0.0422 0.22734,-0.15294 0.35827,-0.17913 0.33664,-0.0673 0.74044,0.0836 1.07478,0 1.25424,-0.31356 2.63901,-0.17913 3.9409,-0.17913 0.65821,0 3.74723,-0.18398 4.29915,0 0.0801,0.0267 0.10887,0.13229 0.17913,0.17913 0.1111,0.0741 0.26386,0.0847 0.35827,0.17913 0.0422,0.0422 -0.0422,0.13691 0,0.17913 0.12666,0.12667 0.37717,-0.0801 0.53739,0 0.0534,0.0267 -0.0267,0.12573 0,0.17914 0.0378,0.0755 0.1036,0.14136 0.17913,0.17913 0.47769,0 -0.0597,-0.0597 0.17913,0.17913 0.0422,0.0422 0.14601,-0.0497 0.17914,0 0.10474,0.15711 0.082,0.37548 0.17913,0.53739 0.23959,0.39932 0.7724,0.76089 0.89565,1.25392 0.0435,0.17379 -0.0665,0.37108 0,0.5374 0.0992,0.24793 0.25308,0.47108 0.35827,0.71652 0.097,0.22629 0.0426,0.51168 0.17913,0.71653 0.40048,0.60073 0.35826,0.11858 0.35826,0.53739 0,0.62376 0.155,2.58025 0,3.04524 -0.0944,0.28323 -0.44298,0.43329 -0.53739,0.71652 -0.0378,0.1133 0.0378,0.24498 0,0.35827 -0.0962,0.28873 -0.57836,0.44019 -0.71653,0.71652 -0.0844,0.16889 -0.0947,0.36851 -0.17913,0.5374 -0.21085,0.4217 -1.02106,0.75833 -1.43305,0.89566 -0.0344,0.0115 -0.5284,0.018 -0.5374,0 -0.16816,-0.33633 0,-1.23123 0,-1.61219 0,-0.6528 0.15752,-1.00994 0.35827,-1.61218 0.065,-0.19497 -0.11008,-0.5514 0,-0.71653 0.021,-0.0315 0.58563,-0.48916 0.35826,-0.71652 -0.0422,-0.0422 -0.13691,0.0422 -0.17913,0 -0.0422,-0.0422 0.0422,-0.13691 0,-0.17913 -0.0365,-0.0365 -0.82222,-0.51292 -0.89566,-0.5374 -0.27732,-0.0924 -2.52496,-0.11371 -2.8661,0 -1.35741,0.45247 0.0647,-0.0647 -0.35827,0.35826 -0.41977,0.41978 -0.61258,0.18799 -0.89565,0.89566 -0.14036,0.3509 0.25646,1.03613 -0.17913,1.25392 -0.0534,0.0267 -0.12573,-0.0267 -0.17914,0 -0.12058,0.0603 -0.67222,0.49271 -0.89565,0.5374 -0.20056,0.0401 -2.19668,0.066 -2.32871,0 -0.35934,-0.17967 -0.46825,-0.64738 -0.71653,-0.89566 -0.064,-0.064 -0.41831,-0.1201 -0.53739,-0.35826 -0.0267,-0.0534 0.0422,-0.13691 0,-0.17914 -0.10522,-0.10521 -1.525604,-0.0216 -1.612186,0 -0.08192,0.0205 -0.103604,0.14137 -0.179132,0.17914 -0.191074,0.0955 -0.525452,-0.0955 -0.716526,0 -0.07553,0.0378 -0.103603,0.14136 -0.179131,0.17913 -0.05341,0.0267 -0.13691,-0.0422 -0.179132,0 -0.05971,0.0597 -0.119421,0.47768 -0.179131,0.53739 -0.04222,0.0422 -0.152428,-0.0534 -0.179132,0 -0.106813,0.21363 0.07553,0.48994 0,0.71653 -0.0267,0.0801 -0.141367,0.1036 -0.179131,0.17913 -0.08444,0.16889 -0.09469,0.36851 -0.179132,0.53739 -0.186815,0.37363 -0.958129,0.57352 -1.25392,0.17914 -0.405717,-0.54096 -0.05971,-0.41798 -0.179132,-0.89566 -0.03238,-0.12953 -0.136909,-0.2316 -0.179131,-0.35827 -0.115742,-0.34722 -0.07073,-1.43767 0,-1.79131 0.226234,-1.13117 0.03649,-0.0365 0.358263,-0.35826 0.08495,-0.085 0.151608,-0.63396 0.179131,-0.71653 0.136036,-0.40811 1.077637,-1.32785 1.433052,-1.61218 0.168113,-0.13449 0.344834,-0.26198 0.537395,-0.35827 0.108154,-0.0541 0.454588,0.0828 0.537394,0 0.04222,-0.0422 -0.05341,-0.15242 0,-0.17913 0.09757,-0.0488 0.969851,-0.035 1.074791,0 0.17838,0.0595 0.35901,0.2988 0.53739,0.35827 0.25946,0.0865 0.6419,0.0523 0.89566,0.17913 0.0755,0.0378 0.10073,0.14777 0.17913,0.17913 0.30622,0.4138 0.72556,0.0794 1.07479,0.17913 0.30918,0.0883 0.58176,0.28851 0.89566,0.35826 0.23315,0.0518 0.47887,-0.0238 0.71652,0 0.36141,0.0361 0.71439,0.13409 1.07479,0.17914 0.40947,0.0512 2.91026,0.1047 3.22437,0 0.12666,-0.0422 0.26385,-0.0847 0.35826,-0.17914 0.13352,-0.13351 0.0456,-0.40387 0.17913,-0.53739 0.0422,-0.0422 0.13691,0.0422 0.17914,0 0.15223,-0.15223 0.26198,-0.34483 0.35826,-0.5374 0.11436,-0.22872 0.0617,-1.27252 -0.17913,-1.43305 -1.01508,0 -0.0597,0.11942 -0.35827,-0.17913 -0.12666,-0.12666 -0.38834,0.0994 -0.53739,0 -0.11109,-0.0741 -0.0847,-0.26385 -0.17913,-0.35826 -0.50007,-0.50007 -0.24946,0.14397 -0.89566,-0.17913 -0.11942,-0.0597 -0.068,-0.2842 -0.17913,-0.35827 -0.26775,-0.17849 -1.32766,0 -1.61218,0 -0.41925,0 -2.81589,-0.11467 -3.04524,0 -0.0755,0.0378 -0.099,0.15243 -0.17913,0.17914 -0.11329,0.0378 -0.24738,-0.0444 -0.35826,0 -0.47611,0.19044 -0.53281,0.47462 -0.89566,0.71652 -0.27822,0.18548 -0.72994,0.38508 -0.89566,0.71653 -0.39722,0.79444 0.73552,1.08112 1.25392,1.25392 0.61165,0.20388 1.4703,0 2.14958,0 1.85102,0 3.70205,0 5.55308,0 0.15006,0 0.64437,-0.25004 0.71652,-0.35827 0.0662,-0.0994 -0.0378,-0.24497 0,-0.35826 0.0545,-0.16357 0.31688,-0.37186 0.35826,-0.53739 0.0843,-0.33719 -0.0843,-0.7376 0,-1.07479 0.75754,-3.03016 -0.35832,-12.718402 -1.61218,-13.972257 -0.0944,-0.09441 -0.26385,-0.08472 -0.35826,-0.179132 -0.37063,-0.370629 0.56637,0.01449 -0.17913,-0.358263 -0.14182,-0.07091 -0.98751,-0.05819 -1.07479,0 -0.43644,0.290957 -0.10633,0.934936 0,1.253921 0.0189,0.05665 -0.0422,0.136909 0,0.179131 0.0422,0.04222 0.1212,-0.01448 0.17913,0 1.49427,0.373569 0.44154,0.123616 0.35826,0.179132 -0.14052,0.09368 -0.21774,0.264581 -0.35826,0.358263 -0.0965,0.06435 -2.64986,0.01484 -2.68697,0 -0.2772,-0.11088 -0.58301,-0.270361 -0.71653,-0.537395 -0.0267,-0.05341 0.0422,-0.13691 0,-0.179131 -0.0944,-0.09441 -0.24717,-0.10507 -0.35826,-0.179132 -0.27559,-0.183724 -0.44094,-0.532801 -0.71653,-0.716526 -0.11007,-0.07338 -0.42732,-0.105749 -0.53739,-0.179131 -0.14053,-0.09368 -0.20721,-0.282735 -0.35827,-0.358263 -0.22357,-0.111787 -0.91061,0.01496 -1.07478,0.179131 -0.0422,0.04222 0.0189,0.122485 0,0.179132 -0.0422,0.126665 -0.10507,0.24717 -0.17914,0.358263 -0.0937,0.140522 -0.28273,0.207206 -0.35826,0.358263 -0.0534,0.106813 0.0534,0.251449 0,0.358263 -0.10581,0.211619 -0.40565,0.339783 -0.53739,0.537394 -0.286991,0.430482 -0.04003,0.564084 -0.537398,0.895657 -0.16511,0.110074 -0.207174,-0.04101 -0.537394,0.179132 -0.131418,0.08761 -0.391461,0.321779 -0.537395,0.358263 -0.385317,0.09633 -1.497969,0.114214 -1.791315,-0.179132 -0.04222,-0.04222 0.04222,-0.136909 0,-0.179131 -0.04222,-0.04222 -0.152428,0.05341 -0.179131,0 -0.05341,-0.106813 0.05341,-0.25145 0,-0.358263 -0.238842,-0.477684 -0.179132,0.537394 -0.179132,-0.179131 0,-0.119421 0,-0.477684 0,-0.358263 0,0.442706 0.08444,0.273819 -0.179131,0.537394 -0.495274,0.495274 -2.271895,2.084074 -2.866104,0.895657 -0.111395,-0.22279 0,-1.850473 0,-2.149577 0,-0.119421 -0.06624,-0.258899 0,-0.358263 0.101426,-0.152139 0.738365,-0.432533 0.895658,-0.537395 0.269124,-0.179416 0.429642,-0.573084 0.716525,-0.716526 0.05341,-0.0267 0.12945,0.03312 0.179132,0 0.248411,-0.165607 0.468115,-0.371787 0.716526,-0.537394 0.254426,0.118325 0.155745,-0.334877 0.179131,-0.358263 0.651971,-0.651971 0.125864,0.190444 0.537395,-0.358263 0.178522,-0.23803 1.002247,-1.716552 1.074789,-1.970446 0.04921,-0.17224 -0.04345,-0.363612 0,-0.537395 2.41e-4,-9.64e-4 0.345771,-0.685297 0.358263,-0.716526 0.260161,-0.650404 0.02289,-1.166366 0.179131,-1.791315 0.02048,-0.08192 0.152428,-0.09902 0.179132,-0.179131 0.08957,-0.268697 -0.08957,-0.62696 0,-0.895658 0.05341,-0.16022 0.304856,-0.198042 0.358263,-0.358263 0.197043,-0.591129 -0.151572,-1.36416 0,-1.970446 0.08259,-0.330359 0.228173,-0.456346 0.358263,-0.716526 0.0267,-0.05341 -0.04222,-0.13691 0,-0.179131 0.04222,-0.04222 0.136909,0.04222 0.179131,0 0.16386,-0.16386 -0.135635,-3.175726 0,-3.58263 0.0267,-0.08011 0.152428,-0.09902 0.179132,-0.179131 0.05665,-0.169939 -0.08011,-0.377175 0,-0.537395 0.03776,-0.07553 0.152428,-0.09902 0.179131,-0.179131 0.05862,-0.175857 0.08514,-2.968949 0,-3.224367 -0.143802,-0.431406 -0.393593,-0.822515 -0.537394,-1.25392 -0.07785,-0.233559 -0.08215,-0.49024 -0.179132,-0.716526 -0.02478,-0.05781 -0.48855,-0.749125 -0.537394,-0.895658 -0.03776,-0.113293 0.05341,-0.251449 0,-0.358263 -0.0267,-0.05341 -0.13691,0.04222 -0.179132,0 -0.04222,-0.04222 0.04222,-0.13691 0,-0.179131 -0.356238,-0.356239 -2.20104,-0.179132 -2.686972,-0.179132 -1.285439,0 -2.493805,-0.002 -3.761761,0.179132 -0.63843,0.0912 -1.339,-0.12629 -1.970447,0 -0.315306,0.06306 -0.583707,0.280275 -0.895657,0.358263 -0.295374,0.07384 -0.597105,0.119421 -0.895657,0.179131 -0.323714,0.06474 -0.771237,-0.121421 -1.074789,0 -1.920308,0.768123 0.04109,0.198852 -1.074789,0.358263 -0.236269,0.03375 -3.58263,0.784456 -3.58263,1.074789 0,0.05971 0.119421,0 0.179132,0 0.597105,0 1.194209,0 1.791314,0 1.015079,0 2.030157,0 3.045236,0 1.373341,0 2.746682,0 4.120024,0 0.597105,0 1.197862,-0.06594 1.791315,0 0.711453,0.07905 1.328876,0.624873 1.970446,0.716526 0.295552,0.04222 0.59941,-0.03703 0.895657,0 0.458087,0.05726 1.287872,0.392214 1.612184,0.716526 0.02232,0.02232 0.471051,1.05489 0.537394,1.25392 0.111607,0.33482 -0.284967,1.897151 -0.537394,2.149578 -0.04222,0.04222 -0.13691,-0.04222 -0.179132,0 -0.102157,0.102157 -0.09157,0.585187 -0.179131,0.716526 -0.09368,0.140522 -0.264582,0.217741 -0.358263,0.358263 -0.03312,0.04968 0.04222,0.13691 0,0.179131 -0.188821,0.188822 -0.527705,0.169442 -0.716526,0.358263 -0.04222,0.04222 0.05341,0.152429 0,0.179132 -0.16022,0.08011 -0.377175,-0.08011 -0.537395,0 -0.07553,0.03776 -0.09902,0.152428 -0.179131,0.179131 -1.092859,0.364287 -3.790844,-0.63423 -4.83655,-0.895657 -0.199821,-0.04995 -0.560635,-0.0752 -0.716526,-0.179131 -0.140522,-0.09368 -0.217741,-0.264582 -0.358263,-0.358263 -0.06015,-0.0401 -2.160225,-0.02407 -2.328709,0 -0.536027,0.07657 -1.16663,0.419489 -1.612184,0.716525 -0.07026,0.04684 -0.119421,0.119421 -0.179131,0.179132 -0.298553,0.179131 -0.593362,0.364654 -0.895658,0.537394 -0.59404,0.339452 -2.284125,0.941038 -2.50784,1.612184 -0.03777,0.113292 0.05341,0.251449 0,0.358263 -0.09703,0.194059 -0.582178,-0.447829 -0.179132,0.358263 0.0225,0.04501 0.405426,-0.02358 0.716526,-0.179132 0.07553,-0.03776 0.141367,-0.103603 0.179132,-0.179131 0.0267,-0.05341 -0.05855,-0.167422 0,-0.179132 0.292754,-0.05855 0.601167,0.04908 0.895657,0 0.08329,-0.01388 0.09721,-0.158651 0.179131,-0.179131 0.289639,-0.07241 0.597105,0 0.895658,0 1.313631,0 2.627262,0 3.940893,0 0.30808,0 1.549554,0.12088 1.791314,0 0.305411,-0.152705 0.576561,-0.615726 0.716526,-0.895658 0.05971,-0.119421 0.13691,-0.231598 0.179132,-0.358263 0.06049,-0.181473 -0.127865,-0.767792 0,-0.895657 0.123294,-0.123294 2.771166,-0.274069 2.866104,-0.179132 0.04222,0.04222 0,0.119421 0,0.179132 0.119421,0 0.24497,-0.03776 0.358262,0 0.413907,0.137969 -0.0056,0.531765 0.179132,0.716526 0.04222,0.04222 0.152428,-0.05341 0.179131,0 0.05341,0.106813 -0.03776,0.24497 0,0.358263 0.0267,0.08011 0.132291,0.10887 0.179132,0.179131 0.07406,0.111093 0.08472,0.263853 0.179131,0.358263 0.67458,0.67458 2.944647,0.315318 3.761762,0.179132 0.206453,-0.03441 0.697862,0.0989 0.895657,0 0.07553,-0.03776 0.103603,-0.141367 0.179135,-0.179132 0.51184,-0.255922 1.11771,-0.01431 1.61218,-0.179131 0.0801,-0.0267 0.099,-0.152428 0.17913,-0.179132 0.4813,-0.160433 1.11974,0.123113 1.61218,0 0.36637,-0.09159 0.70448,-0.284201 1.07479,-0.358263 0.78165,-0.15633 1.96544,0.240512 2.68698,0 0.12666,-0.04222 0.23159,-0.136909 0.35826,-0.179131 0.32244,-0.107479 0.75235,0.107479 1.07479,0 0.18555,-0.06185 0.35968,-0.269408 0.53739,-0.358263 0.24027,-0.120133 0.66982,-0.06621 0.89566,-0.179132 0.29464,-0.147319 0.24276,-0.569206 0.53739,-0.716525 0.0534,-0.0267 0.13691,0.04222 0.17914,0 0.20082,-0.200821 -0.13209,-0.989754 0,-1.253921 0.17545,-0.3509 0.80763,-1.463422 1.25392,-1.612183 0.11329,-0.03776 0.24497,0.03776 0.35826,0 0.0801,-0.0267 0.1036,-0.141367 0.17913,-0.179132 0.10681,-0.05341 0.24241,0.02896 0.35826,0 0.18319,-0.0458 0.35224,-0.1421 0.5374,-0.179131 0.65218,-0.130436 4.1726,-0.08299 4.83655,0 0.90794,0.113492 2.8088,0.379774 3.58263,0.895657 0.90305,0.602032 0.71928,2.237764 -0.17913,2.686972 -0.16889,0.08444 -0.38029,0.07439 -0.5374,0.179132 -0.0497,0.03312 0.0534,0.152428 0,0.179131 -0.10681,0.05341 -0.24241,-0.02896 -0.35826,0 -0.12953,0.03238 -0.23884,0.119421 -0.35826,0.179132 -0.17914,0.05971 -0.35224,0.142101 -0.5374,0.179131 -0.17759,0.03552 -1.11779,0.136134 -1.25392,0 -0.15196,-0.151956 0.10598,-1.380063 0,-1.433051 -0.48426,-0.242133 -1.05742,0.349576 -1.43305,0.537394 -0.2202,0.110101 -0.49633,0.06903 -0.71653,0.179131 -0.33509,0.167545 -0.3409,0.618278 -0.89565,0.895658 -0.40912,0.204559 -2.55687,-0.162917 -3.04524,-0.358263 -0.30195,-0.120779 -1.32236,-0.495138 -1.43305,-0.716526 -0.0855,-0.171044 -0.1002,-1.361687 0,-1.612183 0.0799,-0.199891 0.22909,-0.365163 0.35826,-0.537395 0.41153,-0.548707 -0.11457,0.293708 0.5374,-0.358263 0.28843,-0.288433 -0.30315,-1.116139 -0.35827,-1.25392 -0.0444,-0.11088 0.0662,-0.258899 0,-0.358263 -0.17056,-0.255839 -0.36683,-0.102425 -0.53739,-0.358263 -0.11942,-0.179132 -0.29018,-0.333153 -0.35826,-0.537395 -0.0567,-0.169939 0.0994,-0.388348 0,-0.537394 -0.0937,-0.140522 -0.26459,-0.217741 -0.35827,-0.358263 -0.15379,-0.230684 -0.27896,-0.995485 -0.53739,-1.25392 -0.0422,-0.04222 -0.15243,0.05341 -0.17913,0 -0.12469,-0.249371 0,-1.159336 0,-1.433052 0,-0.05971 -0.0267,-0.125725 0,-0.179132 0.28275,-0.565502 1.68002,-0.358263 1.97044,-0.358263 1.91074,0 3.82147,0 5.73221,0 0.52644,0 3.13349,-0.135006 3.4035,0 0.19256,0.09628 0.34483,0.261983 0.53739,0.358263 0.0753,0.03767 0.87895,0.162423 0.89566,0.179132 0.21818,0.218179 0.0839,0.400217 0.35826,0.537394 0.31711,0.158551 0.0612,-0.266447 0.35827,0.179132 0.60329,0.904937 0.001,0.0041 0.17913,0.537394 0.0183,0.05503 0.32304,0.572613 0.17913,0.716526 -0.36451,0.364506 -1.31986,0.432628 -1.79132,0.537395 -1.68568,0.374596 -3.47757,0.179131 -5.19481,0.179131 -3.16465,0 -6.32931,0 -9.49397,0 -0.0597,0 0.12729,0.02962 0.17913,0 0.35827,-0.238842 0.71653,-0.477684 1.07479,-0.716526 0.0597,0 0.12369,0.02218 0.17913,0 0.23885,-0.119421 0.47769,-0.238842 0.71653,-0.358263 0.0597,-0.119421 0.068,-0.284201 0.17913,-0.358263 0.0994,-0.06624 0.24004,0.01689 0.35827,0 0.3014,-0.04306 0.59224,-0.153847 0.89565,-0.179131 0.71405,-0.05951 1.43305,0 2.14958,0 1.67189,0 3.34379,0 5.01568,0 1.18217,0 3.2256,-0.250292 4.29916,0.179131 0.0554,0.02218 0,0.119421 0,0.179132 0,0.601675 -1.68703,0.358263 -1.79132,0.358263 -1.61218,0 -3.22436,0 -4.83655,0 -0.17913,0 -0.37107,0.06653 -0.53739,0 -0.15681,-0.06272 -0.22316,-0.256931 -0.35826,-0.358263 -0.10682,-0.08011 -0.26386,-0.08472 -0.35827,-0.179132 -0.0161,-0.01608 -0.009,-0.532801 0,-0.537394 0.2202,-0.110101 0.48297,-0.101279 0.71653,-0.179132 0.70296,-0.23432 1.37203,-0.55265 2.14958,-0.358263 0.25906,0.06476 0.47342,0.247764 0.71652,0.358263 0.41398,0.188174 0.8683,0.296382 1.25392,0.537395 0.11322,0.07076 0.068,0.284201 0.17913,0.358263 0.0994,0.06624 0.27382,-0.08444 0.35827,0 0.0844,0.08444 0,0.238842 0,0.358263 0,0.05971 0.0422,0.136909 0,0.179131 -0.66113,0.661125 -1.43963,0.716526 -2.32871,0.716526 -0.89566,0 -1.79359,0.06381 -2.68697,0 -2.17179,-0.155128 -2.83642,-0.56202 -5.01569,-1.074789 -0.78209,-0.184021 -1.79131,-0.216717 -1.79131,-0.179131 0,0.344595 0.94029,0.447531 1.07479,0.716526 0.0267,0.05341 -0.0422,0.136909 0,0.179131 0.20302,0.203018 0.56808,0.240507 0.71652,0.537395 0.12355,0.247086 -0.21693,0.160228 0.17914,0.358262 0.0534,0.0267 0.1369,-0.04222 0.17913,0 0.13351,0.133517 0.0456,0.403878 0.17913,0.537395 0.20302,0.203018 0.56808,0.240507 0.71652,0.537394 0.35991,0.719822 0.35827,1.473381 0.35827,2.32871 0,0.331041 0.10671,0.933792 0,1.25392 -0.18638,0.559127 -0.11942,-0.05971 -0.35827,0.179132 -0.0422,0.04222 0.0422,0.136909 0,0.179131 -0.0422,0.04222 -0.13691,-0.04222 -0.17913,0 -0.0944,0.09441 -0.0847,0.263852 -0.17913,0.358263 -0.0422,0.04222 -0.12945,-0.03312 -0.17913,0 -0.21078,0.140522 -0.29163,0.475953 -0.53739,0.537394 -0.17379,0.04345 -0.36746,-0.05665 -0.5374,0 -0.20424,0.06808 -0.33315,0.290183 -0.53739,0.358263 -0.16994,0.05665 -0.36362,-0.04344 -0.5374,0 -0.31195,0.07799 -0.58648,0.269927 -0.89566,0.358263 -0.11482,0.03281 -0.24046,-0.01963 -0.35826,0 -0.48568,0.08095 -0.94561,0.28863 -1.43305,0.358263 -0.93657,0.133796 -1.92705,-0.117382 -2.8661,0 -0.66189,0.08274 -1.30856,0.275527 -1.97045,0.358263 -0.473996,0.05925 -0.964645,-0.09368 -1.433052,0 -0.0828,0.01656 -0.09902,0.152428 -0.179132,0.179132 -0.815457,0 -0.01024,-0.08444 -0.537394,0.179131 -0.143306,0.07165 -0.39409,-0.07165 -0.537395,0 -0.444126,0.222063 -0.259117,0.499076 -0.358263,0.895658 -0.04138,0.165536 -0.30374,0.373827 -0.358263,0.537394 -0.179974,0.539922 0,1.407844 0,1.970446 0,0.700486 0.164536,4.149217 0,4.478288 -0.129314,0.258628 -0.228949,0.457897 -0.358263,0.716526 -0.05341,0.106813 0.03777,0.24497 0,0.358262 -0.432508,1.297524 0.05165,-0.28242 -0.358263,0.537395 -0.09185,0.183693 -0.08729,0.532833 -0.179131,0.716526 -0.204316,0.408631 -0.50866,0.838188 -0.716526,1.25392 -0.05341,0.106814 0.05341,0.25145 0,0.358263 -0.179132,0.358263 -0.716526,0.537395 -0.895658,0.895658 -0.0267,0.05341 0.04222,0.136909 0,0.179131 -0.04222,0.04222 -0.136909,-0.04222 -0.179131,0 -0.174079,0.174079 0.184833,0.534544 -0.179131,0.716526 -0.05341,0.0267 -0.13691,-0.04222 -0.179132,0 -0.08281,0.08281 0.05408,0.42924 0,0.537395 -0.06671,0.133418 -0.504643,0.822467 -0.358263,0.895657 0.695293,0.347646 0.990575,-2.170983 1.074789,-2.507841 0.372751,-1.491004 -0.01237,0.216231 0.358263,-0.895657 0.09117,-0.2735 -0.419696,-0.257598 -0.537395,-0.179132 -0.111092,0.07406 -0.119421,0.238842 -0.179131,0.358263 -0.359063,0.718127 -0.358263,1.022938 -0.358263,1.791315 0,0.477684 -0.05971,-0.05971 0.179132,0.179132 0.04222,0.04222 0,0.119421 0,0.179131 0.119421,0 0.24497,-0.03776 0.358262,0 0.160221,0.05341 0.207207,0.282735 0.358263,0.358263 0.106133,0.05307 2.021122,0.04282 2.149578,0 0.126665,-0.04222 0.231598,-0.13691 0.358263,-0.179131 0.731453,-0.243818 1.755283,0.150511 2.507841,0 0.331215,-0.06624 0.452765,-0.505521 0.716525,-0.716526 1.16517,-0.932137 -0.11223,0.14568 0.5374,-0.179132 0.72323,-0.361618 0.41451,-0.367434 1.07478,-0.895657 0.27188,-0.2175 0.62379,-0.319895 0.89566,-0.537395 0.58844,-0.470751 0.37277,-1.303961 1.25392,-0.716526 0.36008,0.240055 0.0426,0.127951 0.17913,0.537395 0.11882,0.356462 0.16719,0.08359 0.35827,0.179131 0.28661,0.143305 0.42991,0.573221 0.71652,0.716526 0.0534,0.0267 0.13691,-0.04222 0.17913,0 0.0944,0.09441 0.0847,0.263853 0.17914,0.358263 0.6161,0.616106 1.26081,0.09301 1.79131,0.358263 0.13529,0.06765 1.10244,1.130089 1.25392,1.433052 0.22797,0.455947 -0.20155,2.619721 0,3.224367 0.0607,0.181979 0.49791,1.950705 0.5374,1.970446 0.37759,0.188799 0.35758,-0.181835 0.53739,0.537395 0.11123,0.44493 -0.14444,0.99972 0,1.43305 0.0534,0.16022 0.28273,0.20721 0.35826,0.35826 0.19108,0.38215 -0.19107,1.05091 0,1.43306 0.40991,0.81981 -0.0742,-0.76013 0.35827,0.53739 0.0522,0.15658 0.26719,0.98372 0.35826,1.07479 0.0944,0.0944 0.2842,0.068 0.35826,0.17913 0.0662,0.0994 -0.0534,0.25145 0,0.35826 0.0267,0.0534 0.13691,-0.0422 0.17913,0 0.15224,0.15224 0.26199,0.34484 0.35827,0.5374 0.0267,0.0534 -0.0267,0.12572 0,0.17913 0.10747,0.21496 0.42991,0.32244 0.53739,0.53739 0.0267,0.0534 -0.0422,0.13691 0,0.17914 0.0422,0.0422 0.13691,-0.0422 0.17913,0 0.0422,0.0422 -0.0534,0.15242 0,0.17913 0.0752,0.0376 0.82088,0.12927 0.89566,0.17913 0.14052,0.0937 0.20145,0.29554 0.35826,0.35826 0.28211,0.11284 0.61777,-0.0926 0.89566,0 1.23521,0.41174 2.80943,0.17913 4.12002,0.17913 0.75966,0 3.76468,0.17816 4.29916,0 0.0801,-0.0267 0.099,-0.15242 0.17913,-0.17913 0.22659,-0.0755 0.48994,0.0755 0.71653,0 0.0801,-0.0267 0.1036,-0.14137 0.17913,-0.17913 0.16022,-0.0801 0.36361,0.0434 0.53739,0 0.35787,-0.0895 0.60132,-0.39022 0.89566,-0.53739 0.26417,-0.13209 1.0531,0.20082 1.25392,0 0.0422,-0.0422 -0.0422,-0.13691 0,-0.17914 0.0844,-0.0844 0.25145,0.0534 0.35826,0 0.242,-0.12099 0.4841,-0.24205 0.71653,-0.35826 0.15106,-0.0755 0.20721,-0.28273 0.35826,-0.35826 0.0534,-0.0267 0.15243,0.0534 0.17913,0 0.0534,-0.10681 -0.0534,-0.25145 0,-0.35826 0.0267,-0.0534 0.13691,0.0422 0.17914,0 0.20202,-0.20203 0.17913,-1.78588 0.17913,-2.14958 0,-1.49276 0,-2.98553 0,-4.478289 0,-0.488782 -0.0959,-1.132445 0,-1.612184 0.0262,-0.130924 0.14675,-0.228733 0.17913,-0.358263 0.029,-0.115855 -0.0534,-0.251449 0,-0.358263 0.0369,-0.07376 0.88855,0.03945 1.07479,0.179132 0.0955,0.07165 0,0.238842 0,0.358263 0,0.238842 0,0.477684 0,0.716526 0,0.05902 0.0954,1.554941 0,1.612183 -0.26108,0.156646 -0.59355,0.141367 -0.89566,0.179131 -0.17775,0.02222 -0.36746,0.05665 -0.53739,0 -0.1133,-0.03776 -0.0845,-0.273819 0,-0.358262 0.22737,-0.227371 0.63841,0.165332 0.89565,0.358262 0.27281,0.204609 0.58847,0.614134 0.89566,0.716524 0.17666,0.0589 0.94533,0 1.07479,0 0.47768,0 0.95537,0 1.43305,0 0.17913,0 0.41073,0.12667 0.5374,0 0.22061,-0.22061 -0.21643,-2.649673 0,-2.866101 0.059,-0.05903 0.75867,-0.07639 0.89565,-0.179132 0.38565,-0.289234 0.23826,-0.71476 0.35827,-1.074789 0.23884,-0.716526 0.17913,0.776237 0.17913,-0.179131 0,-0.693311 0.17661,-2.515411 0,-3.045235 -0.0422,-0.126666 -0.14675,-0.228733 -0.17913,-0.358263 -0.029,-0.115856 0.0378,-0.244971 0,-0.358263 -0.0845,-0.253331 -0.27382,-0.463196 -0.35827,-0.716526 -0.0378,-0.113293 0.029,-0.242408 0,-0.358263 -0.0948,-0.379338 -0.44256,-0.695452 -0.53739,-1.074789 -0.006,-0.02306 0.0535,-0.663006 0,-0.716526 -0.0422,-0.04222 -0.14601,0.04968 -0.17913,0 -0.10474,-0.157109 -0.0947,-0.368508 -0.17913,-0.537395 -0.0378,-0.07553 -0.14137,-0.103603 -0.17914,-0.179131 -0.15657,-0.313154 0.4385,-0.333538 0.5374,-0.358263 0.21531,-0.05383 1.49065,-0.09115 1.61218,0 0.15106,0.113293 0.0947,0.368508 0.17913,0.537394 0.0963,0.192561 0.29019,0.333154 0.35827,0.537395 0.0566,0.169939 -0.0435,0.363611 0,0.537394 0.0205,0.08192 0.14136,0.103603 0.17913,0.179132 0.0534,0.106813 -0.0534,0.251449 0,0.358263 0.13514,0.270294 0.24687,0.382339 0.35826,0.716526 0.17041,0.511226 0,2.455123 0,3.045235 0,0.258944 0.0815,0.830349 0,1.074789 -0.0271,0.08117 -0.59722,1.044784 -0.71653,0.895657 -0.43352,-0.541902 -0.79562,-2.036779 -0.89565,-2.686972 -0.0636,-0.413113 0.082,-0.844064 0,-1.25392 0.15291,-0.454968 -0.26667,-0.708422 -0.35827,-1.074789 -0.0521,-0.208401 0.0692,-0.508953 0,-0.716526 -0.12955,-0.388666 -0.51146,-0.733024 -0.71652,-1.074789 -0.39466,-0.09021 -0.0947,-0.368508 -0.17913,-0.537395 -0.0378,-0.07553 -0.11942,-0.119421 -0.17913,-0.179131 -0.11943,-0.238842 -0.25909,-0.468592 -0.35827,-0.716526 -0.0827,-0.206626 -0.26889,-1.701159 -0.17913,-1.970446 0.0422,-0.126665 0.0847,-0.263853 0.17913,-0.358263 0.10047,-0.100465 1.12565,-0.05131 1.25392,0 0.61326,-0.275156 0.58425,0.381688 0.89566,0.537394 0.19594,0.09797 0.53166,0.173396 0.71653,0.358263 0.0422,0.04222 -0.0422,0.13691 0,0.179132 0.43507,0.435075 0.26304,-0.05327 0.53739,0.358263 0.50299,0.754487 0.91468,1.48061 1.25392,2.328709 0.08,0.199891 0.29018,0.333153 0.35826,0.537394 0.0378,0.113293 -0.0378,0.244971 0,0.358263 0.0769,0.230677 0.46051,0.48585 0.5374,0.716526 0.0833,0.249863 -0.0517,0.637019 0,0.895658 0.037,0.185154 0.14809,0.351142 0.17913,0.537394 0.18788,1.127287 -0.0158,2.555274 -0.35826,3.58263 -0.0378,0.113293 0.0378,0.24497 0,0.358263 -0.16127,0.48381 -0.61686,0.934725 -0.71653,1.433052 -0.0351,0.175653 0.0351,0.361741 0,0.537394 -0.0263,0.13135 -0.47275,1.156954 -0.53739,1.25392 -0.0937,0.140523 -0.28274,0.207207 -0.35827,0.358264 -0.0376,0.0752 -0.12927,0.82087 -0.17913,0.89566 -0.0937,0.14052 -0.28273,0.2072 -0.35826,0.35826 -0.0293,0.0587 -0.11462,0.5875 -0.17913,0.71653 -0.0378,0.0755 -0.10361,0.14136 -0.17913,0.17913 -0.0534,0.0267 -0.15243,-0.0534 -0.17914,0 -0.0694,0.13886 -0.13806,1.4479 -0.17913,1.61218 -0.0252,0.10086 -0.4822,0.85404 -0.53739,1.07479 -0.0498,0.19903 0.0746,0.74638 0,0.89566 -0.0597,0.11942 -0.2842,0.068 -0.35826,0.17913 -0.0663,0.0994 0.0443,0.24738 0,0.35826 -0.28154,0.70383 -0.92244,1.30748 -1.25392,1.97045 -0.0267,0.0534 0,0.11942 0,0.17913 -0.0597,0.17913 -0.0744,0.38028 -0.17914,0.53739 -0.0331,0.0497 -0.13691,-0.0422 -0.17913,0 -0.0422,0.0422 0.0145,0.12121 0,0.17914 -0.0458,0.18318 -0.0744,0.38028 -0.17913,0.53739 -0.2114,0 -0.21069,-0.0422 -0.35826,0.17913 -0.32447,0.4867 -0.54682,0.98994 -1.07479,1.25392 -0.65015,0.32508 -2.48453,0.40489 -2.8661,-0.35826 -0.0534,-0.10681 0.0378,-0.24497 0,-0.35826 -0.0862,-0.25855 -0.4694,-0.44452 -0.5374,-0.71653 -0.002,-0.009 0.002,-1.61218 0,-1.61218 -0.10963,0 0.17913,1.4807 0.17913,1.61218 0,0.81593 0.18072,3.93613 0,4.47829 -0.18822,0.56465 -0.17913,0.98687 -0.17913,1.61218 0,0.40297 -0.33402,2.02365 -0.53739,2.32871 -0.0937,0.14052 -0.28274,0.20721 -0.35827,0.35826 -0.0198,0.0396 -0.15249,1.50562 -0.17913,1.61219 -0.0941,0.37646 -0.4148,0.52787 -0.53739,0.89565 -0.07,0.21005 0.0986,0.51926 0,0.71653 -0.0755,0.15106 -0.26458,0.21774 -0.35827,0.35826 -0.0331,0.0497 0.0267,0.12573 0,0.17913 -0.0963,0.19256 -0.2783,0.33751 -0.35826,0.5374 -0.0443,0.11088 0.0378,0.24497 0,0.35826 -0.0267,0.0801 -0.11942,0.11942 -0.17913,0.17913 -0.0597,0.11942 -0.13691,0.2316 -0.17913,0.35827 -0.17644,0.52932 0,1.72066 0,2.3287 0,0.4277 -0.13409,0.94071 0.17913,1.25392 -0.56424,0.2742 -1.12848,0.54839 -1.69271,0.82259 -0.0844,0.0844 -0.14652,0.19992 -0.25334,0.25333 -0.0755,0.0378 -0.19361,-0.0597 -0.25333,0 -0.13351,0.13351 -0.11981,0.37314 -0.25333,0.50666 -0.0597,0.0597 -0.1778,-0.0378 -0.25333,0 -0.27232,0.13616 -0.50666,0.33777 -0.75999,0.50666 -0.34611,-0.18104 -0.22994,0.48327 -0.25333,0.50666 -0.18882,0.18882 -0.57117,0.0645 -0.75999,0.25333 -0.13351,0.13352 -0.11981,0.37314 -0.25333,0.50666 -0.0905,0.0905 -0.59158,0.16984 -0.75999,0.50666 -0.0378,0.0755 0.0597,0.19362 0,0.25333 -0.18882,0.18882 -0.57117,0.0645 -0.75999,0.25333 -0.17913,0.17913 0.0801,0.51966 0,0.75999 -0.0755,0.22659 -0.39984,0.29303 -0.50666,0.50666 -0.11942,0.23884 -0.16889,0.50666 -0.25333,0.75999 -0.0977,0.2931 0.13611,0.7411 0,1.01332 -0.30501,0.61002 -0.96511,1.17023 -1.26665,1.77331 -0.0378,0.0755 0.0378,0.17781 0,0.25333 -0.52715,1.0543 0.0175,-0.27082 -0.50666,0.25333 -0.0597,0.0597 0.0597,0.19362 0,0.25333 -0.0905,0.0905 -0.59158,0.16985 -0.75999,0.50666 -0.31907,0.63814 0.96217,-0.21923 -0.50666,0.75999 -0.0703,0.0468 -0.19362,-0.0597 -0.25333,0 -0.0597,0.0597 0.0597,0.19362 0,0.25334 -0.0597,0.0597 -0.1778,-0.0378 -0.25333,0 -0.2951,0.14754 -0.46489,0.35911 -0.75999,0.50666 -0.4676,0.23379 -1.74626,0 -2.27997,0 -0.16889,0 -0.33778,0 -0.50666,0 0,0.0844 0.0755,0.21556 0,0.25333 -0.3457,0.17285 -3.45797,0 -4.05329,0 -0.87841,0 -3.02121,-0.25958 -3.79995,0 -0.79504,0.26501 -0.74917,1.00249 -1.26665,1.51998 -0.13469,0.13469 -0.66992,0.14637 -0.75999,0.50666 0,1.7968 0.17913,0.14839 -0.25333,1.01332 -0.25865,0.5173 0.31618,1.55237 0,2.02664 -0.13249,0.19873 -0.36336,0.31559 -0.50666,0.50666 -0.11329,0.15106 -0.19362,0.32753 -0.25333,0.50666 -0.0267,0.0801 0.0597,0.19362 0,0.25333 -0.13352,0.13352 -0.37314,0.11981 -0.50666,0.25333 -0.23133,0.23133 -0.650906,1.66423 -1.013322,2.02664 -0.510303,0.5103 -1.249908,0.2031 -1.519981,1.01332 -0.156453,0.46936 -0.0039,3.54274 0.25333,3.79995 0.05971,0.0597 0.215566,-0.0755 0.25333,0 0.07553,0.15106 -0.07553,0.35561 0,0.50667 0.151999,0.30399 0.607993,0.45599 0.759991,0.75999 0.03776,0.0755 -0.05971,0.19362 0,0.25333 0.126665,0.12666 0.633325,-0.12667 0.75999,0 0.05971,0.0597 -0.05971,0.19362 0,0.25333 0.05971,0.0597 0.183069,-0.0468 0.253332,0 0.19873,0.13248 0.30793,0.37417 0.50666,0.50666 0.23352,0.15568 0.7376,-0.0919 1.01332,0 0.49623,0.16541 1.20575,0.44251 1.77331,0.25333 0.9184,-0.30614 0.1803,-0.1202 0.75999,-0.50666 0.15711,-0.10474 0.37315,-0.11982 0.50666,-0.25333 0.18872,-0.18873 -0.0814,-1.27591 0,-1.51999 0.20313,-0.60939 1.09595,-0.61864 1.51998,-0.75999 0.1133,-0.0378 0.14004,-0.21556 0.25333,-0.25333 0.7439,-0.24796 0.68571,0.17905 0.75999,0.25333 0.0597,0.0597 0.19362,-0.0597 0.25333,0 0.50547,0.50547 0.27377,1.40354 1.01332,1.77332 0.17153,0.0858 1.64765,0.10173 2.02665,0.25333 0.11088,0.0444 0.14651,0.19992 0.25333,0.25333 0.59458,0.29729 2.58398,-0.14186 3.29329,0 0.48167,0.0963 1.06788,0.35596 1.51998,0.50666 1.91966,0.63988 -0.0915,-0.0915 0.50666,0.50666 0.0597,0.0597 0.19362,-0.0597 0.25333,0 0.0292,0.0292 0.17122,0.8491 0.25333,1.01332 0.24869,0.49737 0.94283,0.25333 0.50666,0.25333 -0.56289,0 -1.47948,0.18238 -2.02664,0 -1.03495,-0.34498 -0.81979,-0.66323 -1.51998,-1.01332 -0.41926,-0.20963 -1.30115,-0.64195 -1.77331,-0.75999 -0.24577,-0.0615 -0.53341,0.11329 -0.75999,0 -0.52103,-0.26052 -0.94248,-0.56749 -1.51998,-0.75999 -0.46944,-0.15648 -2.16725,-0.12202 -2.53331,0 -0.28884,0.0963 -0.48767,0.3705 -0.75999,0.50666 -0.23884,0.11942 -0.54636,0.0931 -0.75999,0.25333 -0.84443,0.63332 0.42222,0.46444 -0.75999,0.75999 -0.60546,0.15136 -1.98462,0.42827 -2.5333,0.50666 -0.25078,0.0358 -0.53341,-0.1133 -0.75999,0 -0.21363,0.10681 -0.29303,0.39984 -0.50666,0.50666 -0.15106,0.0755 -0.34644,-0.0534 -0.50666,0 -0.17913,0.0597 -0.32753,0.19362 -0.506662,0.25333 -0.16022,0.0534 -0.387239,-0.11942 -0.50666,0 -0.05971,0.0597 0.07553,0.21556 0,0.25333 -0.151057,0.0755 -0.34644,-0.0534 -0.50666,0 -0.496481,0.16549 -0.697678,0.69768 -1.013321,1.01332 -0.05971,0.0597 -0.215566,-0.0755 -0.25333,0 -0.07553,0.15106 0.05341,0.34644 0,0.50666 -0.07553,0.22658 -0.399847,0.29303 -0.50666,0.50666 -0.03777,0.0755 0.04684,0.18307 0,0.25333 -0.357017,0.53552 -0.909635,0.98446 -1.266651,1.51998 -0.154973,0.23246 -0.210258,1.20204 -0.25333,1.26665 -0.10474,0.15711 -0.373144,0.11981 -0.506661,0.25333 -0.119421,0.11942 0.09368,0.36614 0,0.50666 -0.144127,0.34286 -0.561262,0.4619 -0.75999,0.75999 -0.104739,0.15711 -0.140038,0.35561 -0.253331,0.50666 -0.28661,0.38215 -0.72671,0.63118 -1.01332,1.01332 -0.113293,0.15106 -0.119814,0.37315 -0.25333,0.50666 -0.133517,0.13352 -0.373144,0.11982 -0.506661,0.25333 -0.524149,0.52415 0.80097,-0.0205 -0.25333,0.50666 -0.07553,0.0378 -0.19362,-0.0597 -0.25333,0 -0.05971,0.0597 0.03776,0.17781 0,0.25333 -0.16022,0.32044 -0.561262,0.4619 -0.759991,0.76 -0.04684,0.0703 0.04684,0.18306 0,0.25333 0.62512,0.76695 -0.689074,0.43574 -0.75999,0.50666 -0.38997,0.38997 -0.623351,1.13001 -1.013321,1.51998 -0.133517,0.13351 -0.373143,0.11981 -0.50666,0.25333 -0.0898,0.0898 -0.474773,1.23476 -0.506661,1.26665 -0.05971,0.0597 -0.193619,-0.0597 -0.25333,0 -0.302702,0.3027 -0.763984,1.14597 -1.01332,1.51998 -0.324783,0.48717 -0.941869,0.77948 -1.266651,1.26665 -0.34354,0.51531 -0.669781,1.00467 -1.013321,1.51998 -0.168887,0.25333 -0.591104,0.25333 -0.75999,0.50666 -0.09368,0.14052 0.07553,0.3556 0,0.50666 -0.03777,0.0755 -0.19362,-0.0597 -0.253331,0 -0.05971,0.0597 0.04684,0.18307 0,0.25333 -0.132485,0.19873 -0.374174,0.30793 -0.50666,0.50666 -0.09368,0.14052 0.119421,0.38724 0,0.50666 -0.05971,0.0597 -0.19362,-0.0597 -0.25333,0 -0.168901,0.1689 0.09967,1.06732 0,1.26665 -0.106814,0.21363 -0.399847,0.29304 -0.506661,0.50666 -0.301537,0.60308 0.215112,1.63464 0,2.27997 -0.236441,0.70933 -0.776879,0.55733 -1.01332,1.26666 -0.198315,0.59494 0.292371,2.85473 0,3.29329 -0.104739,0.15711 -0.373144,0.11981 -0.506661,0.25333 -0.131814,0.13181 0,0.79912 0,1.01332 0,2.14953 0.263791,4.5181 -0.25333,6.58658 -0.180132,0.72053 0.29523,2.19618 0,2.78664 -0.05341,0.10681 -0.199923,0.14651 -0.25333,0.25333 -0.160826,0.32165 0.112229,0.92996 0,1.26665 -0.03776,0.11329 -0.215566,0.14003 -0.25333,0.25333 -0.08011,0.24033 0.08011,0.51966 0,0.75999 -0.143802,0.4314 -0.303294,0.85991 -0.50666,1.26665 -0.05341,0.10681 -0.215566,0.14004 -0.253331,0.25333 -0.05341,0.16022 0.05341,0.34644 0,0.50666 -0.03776,0.11329 -0.224366,0.13747 -0.25333,0.25333 -0.217807,0.87123 0.181309,1.41069 -0.25333,2.27997 -0.05341,0.10681 -0.199923,0.14652 -0.25333,0.25333 -0.08351,0.16703 -0.185759,1.90845 0,2.27997 0.05341,0.10682 0.199923,0.14652 0.25333,0.25333 0.202664,0.40533 -0.202664,1.11465 0,1.51998 0.125661,0.25132 0.419192,0.49759 0.50666,0.75999 0.05341,0.16022 -0.05341,0.34644 0,0.50666 0.03776,0.1133 0.215566,0.14004 0.253331,0.25333 0.101332,0.304 -0.101333,0.70933 0,1.01332 0.280431,0.8413 0.591479,0.59148 0.75999,0.76 0.179132,0.17913 -0.140522,0.5492 0,0.75999 0.104739,0.1571 0.373144,0.11981 0.50666,0.25333 0.777572,0.77757 -0.148011,0.21063 0.253331,1.01332 0.213626,0.42725 0.748349,0.61586 1.01332,1.01332 0.15265,0.22897 0.879826,1.37282 1.013321,1.77331 0.0267,0.0801 -0.04684,0.18307 0,0.25333 0.264971,0.39746 0.72671,0.63117 1.013321,1.01332 0.311298,0.41506 0.139222,0.89921 0.50666,1.26665 0.133517,0.13352 0.373144,0.11981 0.50666,0.25333 0.05971,0.0597 -0.05971,0.19362 0,0.25333 0.05971,0.0597 0.19362,-0.0597 0.253331,0 0.05971,0.0597 -0.05971,0.19362 0,0.25333 0.478273,0.47827 1.628584,0.50666 2.279971,0.50666 0.290242,0 1.037075,0.11479 1.266651,0 0.659748,-0.32987 0.471083,-0.68884 0.759991,-1.26665 -0.06599,-0.53523 0.401921,-0.0962 0.50666,-0.25333 0.772419,-0.17934 0.09762,-0.70191 0.25333,-1.01332 0.136161,-0.27232 0.3705,-0.48767 0.50666,-0.75999 0.100028,-0.20006 -0.07121,-0.54635 0,-0.75999 0.195999,-0.588 0.547392,-1.03369 1.013321,-1.26665 0.198195,-0.0991 1.347762,-0.0574 1.519981,0 0.334871,0.11162 0.690409,0.59853 1.013321,0.75999 0.07553,0.0378 0.19362,-0.0597 0.25333,0 0.215289,0.21529 0.291371,0.5447 0.50666,0.75999 0.07645,0.0764 1.511158,0 1.519981,0 0.168887,0 0.366138,0.0937 0.506661,0 0.222817,-0.14855 0.786028,-1.29269 1.01332,-1.51998 1.272707,-1.27271 0.267131,0.0396 1.266651,-0.75999 0.279757,-0.22381 0.468462,-0.55176 0.759992,-0.75999 0.3073,-0.2195 0.71121,-0.28008 1.01332,-0.50666 0.0808,-0.0606 0,-1.21502 0,-1.26665 0,-0.28085 0.12145,-0.77043 0,-1.01333 -0.0534,-0.10681 -0.19992,-0.14651 -0.25333,-0.25333 -0.44509,-0.89017 0.9265,0.0825 -0.75999,-1.26665 -0.14745,-0.11795 -0.446951,-0.0742 -0.506662,-0.25333 -0.223187,-0.66956 1.257292,-0.62864 1.519982,-0.75999 0.0755,-0.0378 -0.0597,-0.19362 0,-0.25333 0.0597,-0.0597 0.25333,-0.0844 0.25333,0 0,0.11942 -0.16889,0.16889 -0.25333,0.25333 -0.25333,0.25333 -0.54503,0.47338 -0.75999,0.75999 -0.0507,0.0676 0.0378,0.17781 0,0.25333 -0.18882,0.37765 -0.46144,0.71477 -0.759992,1.01332 -0.215289,0.21529 -0.544701,0.29138 -0.75999,0.50666 -0.05971,0.0597 0.02048,0.17141 0,0.25333 -0.06476,0.25907 -0.133909,0.52115 -0.25333,0.76 -0.188821,0.37764 -0.57117,0.63567 -0.759991,1.01332 -0.274928,0.54985 -0.19037,1.24616 -0.50666,1.77331 -0.09715,0.16191 -0.373144,0.11981 -0.50666,0.25333 -0.05971,0.0597 0.03776,0.1778 0,0.25333 -0.136161,0.27232 -0.410381,0.47115 -0.506661,0.75999 -0.201739,0.60522 0.126104,1.39612 0,2.02664 -0.05237,0.26185 -0.188565,0.50093 -0.25333,0.75999 -0.237462,0.94985 0,2.78382 0,3.79995 0,1.02319 -0.251915,2.53896 0,3.54663 0.09159,0.36636 0.239627,0.74628 0.50666,1.01332 0.05971,0.0597 0.19362,-0.0597 0.253331,0 0.188821,0.18882 0.06451,0.57117 0.25333,0.75999 0.05971,0.0597 0.168887,0 0.25333,0 0.168887,0.16888 0.374175,0.30793 0.50666,0.50666 0.04684,0.0703 0,0.16888 0,0.25333 0.08444,0.16888 0.119814,0.37314 0.25333,0.50666 0.05971,0.0597 0.177802,-0.0378 0.253331,0 0.272321,0.13616 0.516418,0.32398 0.75999,0.50666 0.191074,0.1433 0.374175,0.30793 0.50666,0.50666 0.04684,0.0703 -0.07553,0.21556 0,0.25333 0.151057,0.0755 0.355602,0.0755 0.506662,0 0.20214,-0.10107 -0.52645,-0.7402 -0.25333,-1.01332 0.25333,-0.16889 0.50666,-0.33778 0.75999,-0.50666 0,-0.16889 -0.11942,-0.38724 0,-0.50666 0.18882,-0.18882 0.5378,-0.10521 0.75999,-0.25333 0.0703,-0.0468 -0.0597,-0.19362 0,-0.25333 0.13352,-0.13352 0.34955,-0.14859 0.50666,-0.25333 0.0994,-0.0662 0.13747,-0.22437 0.25333,-0.25333 0.88037,-0.2201 2.37133,0.005 3.03996,0.50666 0.0676,0.0507 -0.0755,0.21556 0,0.25333 0.34482,0.17241 1.97951,0.15023 2.27997,0 1.21594,-0.60797 2.83845,-1.92877 3.2933,-3.2933 0.23066,-0.69197 0,-5.06229 0,-6.33325 0,-3.79995 0,-7.59991 0,-11.39986 0,-1.25585 -0.24507,-4.84631 0,-5.82659 0.2388,-0.9552 0.27,-0.26167 0.75999,-0.50666 0.10681,-0.0534 0.14651,-0.19993 0.25333,-0.25333 0.6402,-0.3201 2.39841,0.32077 3.03996,0 0.0755,-0.0378 -0.0378,-0.1778 0,-0.25333 0.52715,-1.0543 -0.0175,0.27082 0.50666,-0.25333 0.0597,-0.0597 -0.0755,-0.21557 0,-0.25333 0.15106,-0.0755 0.34985,0.0627 0.50666,0 0.93113,-0.37245 1.77331,-1.54909 1.77331,-2.5333 0,-0.007 0.12722,-1.58248 0,-1.77332 -0.35026,-0.52538 -2.99337,-3.21466 -3.54662,-3.54662 -0.22898,-0.13739 -0.53781,-0.1052 -0.75999,-0.25333 -0.0703,-0.0468 0.0597,-0.19362 0,-0.25333 -0.0597,-0.0597 -0.1778,0.0378 -0.25333,0 -0.10682,-0.0534 -0.14652,-0.19992 -0.25333,-0.25333 -0.0755,-0.0378 -0.19362,0.0597 -0.25333,0 -0.0597,-0.0597 0.0597,-0.19362 0,-0.25333 -0.0597,-0.0597 -0.19362,0.0597 -0.25333,0 -0.0597,-0.0597 0.0755,-0.21556 0,-0.25333 -0.68979,-0.34489 -2.59658,0.34836 -3.2933,0 -0.0755,-0.0378 0.0819,-0.23285 0,-0.25333 -0.41298,-0.10325 -4.85842,-0.15384 -5.31993,0 -0.46933,0.15644 -0.15144,0.70767 -0.25333,1.01332 -0.0378,0.11329 -0.19189,0.15093 -0.25333,0.25333 -0.16889,0.33778 -0.33777,0.67555 -0.50666,1.01332 0,0.0845 0.0267,0.17322 0,0.25333 -0.11942,0.35827 -0.38724,0.65506 -0.50666,1.01332 -0.0267,0.0801 0.0597,0.19362 0,0.25333 -0.0597,0.0597 -0.25333,-0.0844 -0.25333,0 0,0.465 0.70961,-0.77725 1.26665,-1.51998 1.06378,-1.41837 3.03453,-1.51817 4.55994,-2.02664 0.93581,-0.31194 5.20694,-0.58199 6.07993,0 0.68548,0.45699 1.29007,1.38232 1.77331,2.02664 0.11329,0.15106 0.11981,0.37315 0.25333,0.50666 0.0597,0.0597 0.21557,0.0755 0.25333,0 0.0755,-0.15105 -0.0937,-0.36614 0,-0.50666 0.10474,-0.15711 0.37314,-0.11981 0.50666,-0.25333 0.0597,-0.0597 -0.0205,-0.17141 0,-0.25333 0.0648,-0.25906 0.15416,-0.51205 0.25333,-0.75999 0.11308,-0.28269 0.43282,-0.46461 0.50666,-0.75999 0.12785,-0.51138 0.17878,-1.99697 0,-2.5333 -0.0378,-0.11329 -0.19992,-0.14652 -0.25333,-0.25333 -0.2577,-0.5154 -0.62071,-1.24984 -1.01332,-1.77331 -0.14331,-0.19108 -0.37417,-0.30793 -0.50666,-0.50666 -0.0468,-0.0703 0.0468,-0.18307 0,-0.25333 -0.13249,-0.19873 -0.37418,-0.30793 -0.50666,-0.50666 -0.0937,-0.14053 0.0534,-0.34644 0,-0.50666 -0.0597,-0.17913 -0.20754,-0.32348 -0.25333,-0.50666 -0.10512,-0.42049 0.19191,-1.13617 0,-1.51998 -0.10681,-0.21363 -0.39985,-0.29304 -0.50666,-0.50667 -0.16479,-0.32957 0.23594,-0.59689 -0.25333,-0.75999 -0.32044,-0.10681 -0.69971,0.12545 -1.01332,0 -0.28269,-0.11307 -0.47115,-0.41038 -0.75999,-0.50666 -0.24033,-0.0801 -0.51011,0.0416 -0.75999,0 -2.22378,-0.37063 0.38724,-0.0932 -1.26665,-0.50666 -0.16385,-0.041 -0.34644,0.0534 -0.50666,0 -0.1133,-0.0378 -0.14652,-0.19992 -0.25333,-0.25333 -0.20267,-0.10133 -0.55733,0.10134 -0.76,0 -0.10681,-0.0534 -0.14003,-0.21556 -0.25333,-0.25333 -0.42289,-0.14096 -1.07388,0 -1.51998,0 -1.5956,0 -1.98935,-0.1093 -3.29329,0.75999 -0.15711,0.10474 -0.37314,0.11982 -0.50666,0.25333 -0.0597,0.0597 0.0468,0.18307 0,0.25333 -0.13248,0.19873 -0.33777,0.33778 -0.50666,0.50666 -0.16889,0.33778 -0.3193,0.68544 -0.50666,1.01333 -0.40392,0.70685 -0.65577,1.31154 -1.01332,2.02664 -0.10681,0.21362 -0.67555,0.33777 -0.50666,0.50666 0.18913,0.18912 0.52666,-1.09199 1.01332,-1.77331 0.10975,-0.15365 0.37314,-0.11982 0.50666,-0.25333 0.22863,-0.22863 1.01877,-1.64801 1.51998,-1.77332 0.36362,-0.0909 2.9602,-0.24668 3.03996,-0.25333 1.46912,-0.12242 2.80854,-0.72067 4.30662,-0.50666 0.26435,0.0378 0.49814,0.20096 0.75999,0.25333 0.56229,0.11246 1.52092,-0.25285 2.02664,0 0.21362,0.10682 0.29303,0.39985 0.50666,0.50666 0.15106,0.0755 0.33908,-0.0209 0.50666,0 0.21973,0.0275 2.69441,0.6911 3.03996,0 0.76955,-1.53909 -0.147,-3.46528 0.25333,-5.0666 0.27174,-1.08695 1.16007,-2.59972 0.75999,-3.79995 -0.0597,-0.17913 -0.078,-0.43654 -0.25333,-0.50666 -0.31361,-0.12545 -0.68014,0.0555 -1.01332,0 -0.18625,-0.031 -0.32348,-0.20754 -0.50666,-0.25333 -0.16384,-0.041 -0.34644,0.0534 -0.50666,0 -0.35826,-0.11942 -0.65972,-0.37406 -1.01332,-0.50666 -0.326,-0.12225 -0.69005,-0.12403 -1.01332,-0.25333 -0.11088,-0.0444 -0.15397,-0.18709 -0.25333,-0.25333 -0.46666,-0.31111 -1.07768,-0.53884 -1.51998,-0.75999 -0.21363,-0.10682 -0.29304,-0.39985 -0.50666,-0.50666 -0.0755,-0.0378 -0.1778,0.0378 -0.25333,0 -0.34432,-0.17216 -0.66901,-0.58784 -1.01332,-0.75999 -1.50943,-0.75472 -3.61975,-0.62811 -5.31994,-0.50666 -5.12629,0.36616 -0.78759,-0.15969 -3.54662,0.75999 -0.24033,0.0801 -0.5334,-0.1133 -0.75999,0 -0.10681,0.0534 -0.14652,0.19992 -0.25333,0.25333 -0.0931,0.0465 -1.489678,0.47635 -1.519982,0.50666 -0.05971,0.0597 0.05971,0.19362 0,0.25333 -0.05971,0.0597 -0.291094,0.0755 -0.25333,0 0.507412,-1.01482 2.404552,-1.86675 3.293292,-2.53331 0.82122,-0.61591 1.61128,-1.56563 2.5333,-2.02664 0.0755,-0.0378 0.1778,0.0378 0.25333,0 0.34432,-0.17216 0.66901,-0.58783 1.01332,-0.75999 0.0755,-0.0378 0.16889,0 0.25333,0 0.16889,-0.0844 0.34955,-0.14859 0.50666,-0.25333 0.4805,-0.32033 0.95371,-0.82456 1.51998,-1.01332 0.38676,-0.12892 0.89216,-0.1285 1.26666,-0.25333 0.22658,-0.0755 0.30793,-0.37417 0.50666,-0.50666 1.10643,-0.73762 -0.0835,0.11228 1.01332,-0.25333 0.22658,-0.0755 0.29303,-0.39985 0.50666,-0.50666 0.50074,-0.25037 1.74,0 2.27997,0 0.83157,0 1.76498,0.13083 2.5333,-0.25333 0.21363,-0.10681 0.29303,-0.39985 0.50666,-0.50666 0.0755,-0.0378 0.18307,0.0468 0.25333,0 0.76695,0.62512 0.43574,-0.68907 0.50666,-0.75999 0.52415,-0.52415 -0.0205,0.80097 0.50666,-0.25333 0.14689,-0.29377 0.72868,-3.75726 0.50666,-4.05328 -0.96701,-1.28935 -0.45672,0.0499 -1.26665,-0.75999 -0.13352,-0.13352 -0.0962,-0.40192 -0.25333,-0.50666 -0.14052,-0.0937 -0.34105,0.0331 -0.50666,0 -0.6041,-0.12082 -1.17531,-0.35717 -1.77331,-0.50666 -0.24577,-0.0615 -0.51158,0.0497 -0.75999,0 -1.07314,-0.21463 -1.40515,-0.25333 -2.5333,-0.25333 -0.46817,0 -1.32059,-0.15091 -1.77331,0 -0.1133,0.0378 -0.14652,0.19992 -0.25333,0.25333 -0.0755,0.0378 -0.25333,-0.0845 -0.25333,0 0,0.0844 0.16888,0 0.25333,0 0.90336,0 1.5981,-0.18654 2.5333,-0.25333 3.59762,-0.25698 0.92003,0.21331 2.78663,-0.25333 0.39528,-0.0988 1.15791,0.18103 1.51998,0 0.0755,-0.0378 -0.0597,-0.19362 0,-0.25333 0.0597,-0.0597 0.16889,0 0.25333,0 0.16889,-0.16889 0.37418,-0.30794 0.50666,-0.50667 0.1329,-0.19934 0,-0.7586 0,-1.01332 0,-0.36686 0.16054,-1.19889 0,-1.51998 -0.0534,-0.10681 -0.19992,-0.14651 -0.25333,-0.25333 -0.004,-0.008 -0.0997,-2.32572 -0.25333,-2.78663 -0.11942,-0.35826 -0.38724,-0.65506 -0.50666,-1.01332 -0.12666,-0.37999 0.25333,-0.25333 0,-0.75999 -0.0378,-0.0755 -0.19362,0.0597 -0.25333,0 -0.0597,-0.0597 0.0597,-0.19362 0,-0.25333 -0.0597,-0.0597 -0.19362,0.0597 -0.25333,0 -0.0513,-0.0513 -0.0513,-1.2153 0,-1.26665 0.0597,-0.0597 0.1778,0.0378 0.25333,0 0.41986,-0.20993 0.47288,-0.72621 0.75999,-1.01332 0.42596,-0.42596 0.85914,-0.46997 1.26665,-1.01332 0.33988,-0.45317 0.46855,-1.03425 0.75999,-1.51998 0.23542,-0.39236 0.80984,-0.60636 1.01332,-1.01332 0.31197,-0.62394 -0.73535,0.22869 0.25333,-0.75999 0.13352,-0.13352 0.37315,-0.11982 0.50666,-0.25334 0.0597,-0.0597 -0.0378,-0.1778 0,-0.25333 0.10682,-0.21362 0.39985,-0.29303 0.50666,-0.50666 0.0378,-0.0755 -0.0378,-0.1778 0,-0.25333 0.10682,-0.21362 0.39985,-0.29303 0.50666,-0.50666 0.0378,-0.0755 -0.0597,-0.19362 0,-0.25333 0.0597,-0.0597 0.21557,0.0755 0.25333,0 0.0755,-0.15105 -0.0534,-0.34644 0,-0.50666 0.0215,-0.0644 0.48521,-0.94894 0.50666,-1.01332 0.0534,-0.16022 -0.0755,-0.3556 0,-0.50666 0.0378,-0.0755 0.19362,0.0597 0.25333,0 0.23885,-0.23884 -0.0662,-0.6821 0,-1.01332 0.0811,-0.40531 0.37541,-0.87289 0.50666,-1.26665 0.0797,-0.2391 -0.16319,-0.85013 0,-1.01332 0.0597,-0.0597 0.21557,0.0755 0.25333,0 0.0997,-0.19933 -0.1689,-1.09775 0,-1.26665 0.0597,-0.0597 0.19362,0.0597 0.25334,0 0.13351,-0.13352 0.11981,-0.37314 0.25333,-0.50666 0.19337,-0.19337 0.4473,0.21376 0.50666,0.25333 0.1571,0.10474 0.37314,0.11981 0.50666,0.25333 0.1689,0.1689 -0.0997,1.06732 0,1.26665 0.0378,0.0755 0.19362,-0.0597 0.25333,0 0.12561,0.12562 0,1.08869 0,1.26665 0,1.15178 0.31168,0.62337 0.75999,1.51998 0.0378,0.0755 -0.0597,0.19362 0,0.25333 0.0597,0.0597 0.19362,-0.0597 0.25333,0 0.0938,0.0938 0,1.26973 0,1.51998 0,0.63766 0.23927,2.56142 0,3.03997 -0.13841,0.2768 -0.72663,0.91775 -1.01332,1.01332 -0.16022,0.0534 -0.36614,-0.0937 -0.50666,0 -0.15711,0.10474 -0.11982,0.37314 -0.25333,0.50666 -0.0597,0.0597 -0.19362,-0.0597 -0.25333,0 -0.24398,0.24397 0.39222,1.43 0.50666,1.77331 0.1663,0.49891 0.32196,0.9659 0.50666,1.51998 0.0534,0.16022 -0.0755,0.3556 0,0.50666 0.13616,0.27232 0.39358,0.4773 0.50666,0.75999 0.2275,0.56877 -0.27242,1.4818 0,2.02664 0.0534,0.10681 0.19992,0.14652 0.25333,0.25333 0.11329,0.22659 -0.0801,0.51966 0,0.75999 0.11329,0.33988 0.56126,0.4619 0.75999,0.75999 0.22905,0.34358 0.21832,0.8822 0.50666,1.26665 0.1433,0.19108 0.37417,0.30793 0.50666,0.50666 0.0468,0.0703 -0.0597,0.19362 0,0.25333 0.0714,0.0714 0.99067,-0.005 1.01332,0 1.6672,0.33344 -0.1397,0.25333 1.51998,0.25333 4.43289,0 1.94309,-0.0393 12.15985,2.78664 0.36397,0.10067 0.29718,0.6991 0.50666,1.01332 0.13248,0.19872 0.43113,0.28007 0.50666,0.50666 0.0534,0.16022 -0.0755,0.3556 0,0.50666 0.30399,0.60799 1.21598,0.91199 1.51998,1.51998 0.0378,0.0755 -0.0468,0.18307 0,0.25333 0.5169,0.77534 0.81864,0.54576 1.51998,1.01332 0.0703,0.0468 -0.0378,0.1778 0,0.25333 0.34184,0.68367 0.11355,-0.009 0.50666,0.25333 0.29809,0.19873 0.42011,0.6467 0.75999,0.75999 0.16022,0.0534 0.34644,-0.0534 0.50666,0 0.11329,0.0378 0.16889,0.16889 0.25333,0.25333 0.25333,0.0844 0.50093,0.18856 0.75999,0.25333 1.11079,0.2777 2.41436,-0.18871 3.54663,0 0.37726,0.0629 1.89847,0.72337 2.02664,0.75999 0.16239,0.0464 0.34644,-0.0534 0.50666,0 0.11329,0.0378 0.13747,0.22437 0.25333,0.25333 0.24576,0.0614 0.5334,-0.11329 0.75999,0 0.16888,0.0844 0.11981,0.37314 0.25333,0.50666 0.29131,0.29131 0.96985,0.3088 1.26665,0.50666 0.0703,0.0468 -0.0703,0.20649 0,0.25333 0.21137,0.14092 1.5397,0.60425 1.77331,0.75999 0.29809,0.19873 0.43955,0.59977 0.75999,0.75999 0.0755,0.0378 0.1778,-0.0378 0.25333,0 0.46521,0.23261 0.84123,0.72971 1.26665,1.01332 0.0703,0.0468 0.16889,0 0.25333,0 0.16889,0.0845 0.37315,0.11982 0.50666,0.25333 0.0425,0.0425 0.18703,0.54691 0.50666,0.75999 0.35346,0.23564 0.75872,0.0836 1.01332,0.25333 0.2981,0.19873 0.43955,0.59977 0.75999,0.75999 0.0755,0.0378 0.16889,0 0.25333,0 0.25333,0.16889 0.5447,0.29138 0.75999,0.50667 0.0597,0.0597 -0.0597,0.19361 0,0.25333 0.13352,0.13351 0.34956,0.14859 0.50666,0.25333 0.38974,0.25982 0.62359,0.75349 1.01333,1.01332 0.0703,0.0468 0.19361,-0.0597 0.25333,0 0.0597,0.0597 0,0.16888 0,0.25333 0.0844,0.0844 0.15396,0.18708 0.25333,0.25333 0.43634,0.29089 1.57886,0.93663 1.77331,1.51998 0.0534,0.16022 -0.0755,0.3556 0,0.50666 0.10681,0.21362 0.37417,0.30793 0.50666,0.50666 0.0468,0.0703 -0.0597,0.19362 0,0.25333 0.0597,0.0597 0.19362,-0.0597 0.25333,0 0.0597,0.0597 -0.0597,0.19362 0,0.25333 0.13351,0.13352 0.37314,0.11981 0.50666,0.25333 0.41541,0.41541 0.51469,1.28271 0.75999,1.77331 0.38423,0.76846 1.0279,1.11721 1.51998,1.77331 0.27284,0.36379 0.23381,0.90286 0.50666,1.26665 0.11329,0.15106 0.3556,0.14004 0.50666,0.25333 0.76695,-0.62512 0.43574,0.68908 0.50666,0.75999 0.0597,0.0597 0.19362,-0.0597 0.25333,0 0.13352,0.13352 0.14859,0.34955 0.25333,0.50666 0.25983,0.38974 0.7535,0.62359 1.01332,1.01332 0.10474,0.15711 0.11981,0.37315 0.25333,0.50666 0.0597,0.0597 0.19362,-0.0597 0.25333,0 0.0597,0.0597 -0.0597,0.19362 0,0.25333 0.0597,0.0597 0.19362,-0.0597 0.25333,0 0.45527,0.45527 0.65744,1.23949 1.01332,1.77332 0.19487,0.2923 0.56512,0.46768 0.75999,0.75999 0.10474,0.1571 0.11982,0.37314 0.25333,0.50666 0.13352,0.13351 0.37315,0.11981 0.50666,0.25333 0.0597,0.0597 -0.0507,0.18577 0,0.25333 1.76259,2.35011 -0.15596,-0.56527 0.75999,1.26665 0.18883,0.37764 0.46144,0.71477 0.75999,1.01332 0.0597,0.0597 0.20649,-0.0703 0.25333,0 0.25225,0.37837 0.25442,0.88828 0.50667,1.26665 0.0662,0.0994 0.14651,0.19992 0.25333,0.25333 0.0755,0.0378 0.21556,-0.0755 0.25333,0 0.0755,0.15106 -0.0534,0.34644 0,0.50666 0.0755,0.22659 0.37417,0.30793 0.50666,0.50666 0.10473,0.15711 0.11981,0.37314 0.25333,0.50666 0.0597,0.0597 0.21556,-0.0755 0.25333,0 0.11329,0.22659 -0.1133,0.53341 0,0.75999 0.31304,0.62608 0.25333,-0.0874 0.25333,0.50666 l 1.26665,82.07898 z"
       id="path356" /></g></svg>
