<?xml version="1.0" encoding="UTF-8" standalone="no"?>
<!-- Created with Inkscape (http://www.inkscape.org/) -->

<svg
   width="210mm"
   height="297mm"
   viewBox="0 0 210 297"
   version="1.1"
   id="svg5"
   xml:space="preserve"
   inkscape:version="1.2.1 (9c6d41e410, 2022-07-14)"
   sodipodi:docname="eric.svg"
   xmlns:inkscape="http://www.inkscape.org/namespaces/inkscape"
   xmlns:sodipodi="http://sodipodi.sourceforge.net/DTD/sodipodi-0.dtd"
   xmlns="http://www.w3.org/2000/svg"
   xmlns:svg="http://www.w3.org/2000/svg"><sodipodi:namedview
     id="namedview7"
     pagecolor="#505050"
     bordercolor="#eeeeee"
     borderopacity="1"
     inkscape:showpageshadow="0"
     inkscape:pageopacity="0"
     inkscape:pagecheckerboard="0"
     inkscape:deskcolor="#505050"
     inkscape:document-units="mm"
     showgrid="false"
     inkscape:zoom="0.36925856"
     inkscape:cx="150.30119"
     inkscape:cy="403.5113"
     inkscape:window-width="1920"
     inkscape:window-height="1009"
     inkscape:window-x="-8"
     inkscape:window-y="-8"
     inkscape:window-maximized="1"
     inkscape:current-layer="layer1" /><defs
     id="defs2"><inkscape:path-effect
       effect="simplify"
       id="path-effect528"
       is_visible="true"
       lpeversion="1"
       steps="1"
       threshold="0.00146067"
       smooth_angles="360"
       helper_size="0"
       simplify_individual_paths="false"
       simplify_just_coalesce="false" /></defs><g
     inkscape:label="Layer 1"
     inkscape:groupmode="layer"
     id="layer1"><path
       style="fill:none;fill-opacity:0;stroke:#000000;stroke-width:0.264583"
       d="m 40.125451,14.330518 c -0.05344,2.06777 0.389917,4.142353 0.152074,6.193164 -0.301275,2.597751 -2.822088,10.050852 -2.301652,7.420829 0.382223,-1.931563 -0.304761,-3.514867 -1.51268,-5.090432 -1.029955,-1.343436 -2.450145,-1.420788 -3.707657,-2.92713 -1.235226,-1.479646 -3.551899,-0.825723 -5.239,-0.627816 -1.792817,0.210308 -5.682579,-0.96262 -5.364906,0.807305 0.324989,1.810688 -0.234049,2.873201 -2.088904,4.255444 -1.732769,1.291264 0.935436,4.451897 -0.625392,5.545563 -1.4101,0.988052 -1.91576,2.453983 -1.453071,4.166308 0.428577,1.586083 -0.196726,4.71763 1.999117,4.688404 1.747099,-0.02325 3.150136,0.09138 4.913617,0.833727 2.606612,1.097265 5.542484,0.116154 8.263644,0.480386 2.436908,0.326184 2.865719,-3.126535 1.282753,-3.983122 -1.519662,-0.822331 -3.335211,-0.382591 -4.9674,-0.210797 -1.348845,0.141971 -1.809016,1.996482 -3.123991,2.141022 -1.914138,0.210399 -2.242338,3.20062 -3.248604,4.608866 -0.936682,1.310865 -2.029537,2.465655 -2.898564,3.917487 -1.024502,1.711575 -2.461505,2.962778 -4.290761,4.109773 -1.855304,1.163328 -3.553135,-1.358451 -5.28989,-0.147757 -1.3937588,0.971591 -0.8346834,3.208209 -1.2980496,4.722903 -0.5234362,1.711056 1.0256976,3.004804 2.5205326,3.418463 1.76508,0.488443 3.704661,1.340547 5.449869,0.792909 1.999395,-0.6274 2.326432,1.590679 4.616343,1.641346 3.679473,0.08141 7.484068,0.747967 11.047314,-0.182659 2.333823,-0.609533 3.886219,-2.498702 5.522582,-4.153304 1.346117,-1.361121 3.059453,-1.857861 3.71712,-4.048346 0.545515,-1.816941 1.920454,-3.590639 1.630989,-5.460974 -0.262442,-1.695733 1.164958,-3.127252 0.62633,-4.706042 -0.484044,-1.418797 -0.844654,-3.748714 1.684928,-3.305236 2.321004,0.406911 4.699952,-0.183866 7.041101,-0.04097 1.733495,0.105805 4.198583,-0.937515 5.270267,0.520713 1.343163,1.827626 0.334706,4.37702 -0.782833,5.994689 -1.03125,1.492764 -1.837906,4.173436 -3.596248,4.434806 -0.870311,0.129368 -0.979593,3.744795 -0.85893,2.685791 0.07664,-0.672643 0.568222,-2.457439 -0.258992,-0.94437 -0.612373,1.120101 -1.247441,1.689463 -1.428873,2.788325 -0.264261,1.600526 0.175676,3.224335 0.142053,4.834822 -0.04049,1.939451 1.85898,2.925708 3.616094,2.818824 2.494713,-0.151752 5.112898,0.944184 7.472796,0.09722 1.6441,-0.590063 1.994988,-2.612011 2.642254,-4.047094 0.778495,-1.726037 1.069124,-3.039571 1.901526,-5.071075 0.607874,-1.483537 -0.07846,-4.957988 1.484131,-4.57872 1.491651,0.362049 1.146271,-1.441881 1.426715,-2.782617 0.368054,-1.75958 -0.134462,0.28511 0.05629,1.084707 0.458525,1.922064 -0.794711,3.592403 -0.81753,5.432223 -0.02898,2.336608 -1.570777,5.329988 0.05105,7.013575 1.521384,1.579317 3.917895,1.778492 5.966755,2.210611 1.912027,0.40326 3.743587,-0.375565 5.192587,-1.650006 2.093927,-1.841675 4.37562,-3.670253 5.7006,-6.122265 1.041727,-1.927823 1.030602,-4.500648 2.826517,-5.914149 1.106731,-0.871069 2.514704,-1.708389 2.573345,-3.014166 0.08435,-1.878206 3.306231,-1.591155 4.310685,0.04301 1.10403,1.796162 0.289659,4.76366 2.090548,5.848659 1.779985,1.072405 2.369569,-3.624921 0.384259,-3.581037 -3.621306,0.08005 -8.20392,-0.4622 -10.612548,2.302426 -1.048227,1.203156 -2.92134,0.961485 -3.793955,2.778366 -1.021247,2.12635 -0.959594,4.418858 -1.592939,6.728919 -0.539431,1.967519 -0.868624,4.125922 -0.413704,6.107106 0.289735,1.261801 -0.627875,4.343199 0.784144,4.323933 4.069607,-0.05553 8.152039,-0.13995 12.222731,-0.0034 3.151148,0.105704 7.500741,2.474367 9.470751,-0.02664 1.17815,-1.495709 3.39087,-1.433466 4.79579,-2.664317 1.92892,-1.689933 2.96662,-4.796616 5.78459,-5.147097 1.43165,-0.178059 3.94709,-1.533755 4.31704,-0.141619 0.13784,0.518699 -0.87522,0.891934 1.02766,1.143199 0.9786,0.129219 0.7693,-0.0509 1.27154,1.077628 0.77807,1.748301 -0.35929,3.726882 0.0177,5.563336 0.40071,1.951855 -1.06928,3.237966 -2.28559,4.701364 -1.1981,1.44149 -2.49734,1.940043 -4.58398,1.914557 -3.20796,-0.03918 -10.28174,-2.702995 -9.637,0.458612 0.30512,1.496211 -2.42966,1.553998 -3.57389,1.69265 -1.969276,0.238627 -3.948562,-0.242839 -5.922149,0.295783 -3.022915,0.825 -6.092891,1.458486 -9.213352,1.771391 -4.698564,0.471149 -9.405738,1.021496 -13.971154,2.203786 -1.361037,0.352463 -3.096543,-0.560383 -4.212535,0.382439 -1.153391,0.974418 -2.646111,0.193079 -4.102768,0.88227 -2.703658,1.279187 -5.315959,0.394369 -8.4357,0.913062 -2.497216,0.415191 -5.038107,1.158939 -7.557634,0.587702 -1.996881,-0.452741 -3.616045,0.599107 -5.339833,1.561877 -1.395202,0.779248 0.302424,-0.699388 -1.116773,-0.382054 -2.16866,0.484914 -3.374052,3.178578 -5.503999,3.278199 -1.232908,0.05767 -1.484199,3.160167 -2.694064,2.836063 -1.81079,-0.485082 -0.103558,0.735965 -1.619423,2.322775 -1.144725,1.1983 -1.940349,2.693461 -2.875599,4.061495 -1.702082,2.489715 -3.292934,5.056355 -5.207788,7.394745 -0.919147,1.12245 -0.895879,1.97773 -1.094733,3.60967 -0.251109,2.06078 -1.087712,4.49263 0.04965,6.25667 1.342117,2.08161 4.029109,2.66357 6.311689,2.87793 2.659258,0.24973 5.77564,0.85407 8.018828,-0.72835 2.792575,-1.96997 2.715009,-5.73323 3.452364,-8.74323 0.364001,-1.48591 -0.01579,2.35552 -0.04987,3.00277 -0.09188,1.74491 -0.584208,6.63268 0.584213,5.22854 0.603909,-0.72574 0.802828,-0.0534 1.204647,0.69527 0.868242,1.61778 2.718954,1.49132 4.306809,1.38274 1.615074,-0.11044 3.220696,-0.38883 4.066243,-2.14811 0.863377,-1.79638 1.850368,-3.60645 2.211074,-5.59439 0.172515,-0.95077 -0.06972,-4.41616 0.549754,-3.28704 0.484416,0.88295 -0.687046,2.06405 1.243838,2.23811 1.026447,0.0925 1.772813,0.14191 1.060605,1.49313 -0.768928,1.45883 1.261443,0.29448 2.149578,1.43305 1.270172,1.62834 3.616225,1.53271 5.463351,1.55202 2.790429,0.0292 6.2724,1.09923 8.368854,-0.88034 0.850443,-0.80303 1.248291,-2.41473 2.110199,-1.53485 0.867545,0.88563 -1.697895,2.03606 -1.611886,3.72928 0.09712,1.91194 -1.658664,2.33846 -2.261967,4.70352 -0.60906,2.38763 2.09332,1.86992 3.683324,2.99435 1.490777,1.05426 3.305342,1.17666 5.23617,1.12862 2.198316,-0.0547 4.437184,0.0597 6.606055,-0.35663 1.216797,-0.23359 -0.535853,-1.09682 0.882714,-1.72502 1.396322,-0.61835 2.520754,-1.61954 2.77548,-3.30127 0.189371,-1.25025 1.571835,-1.65753 1.853366,-2.93549 0.202797,-0.92056 -0.459982,-2.72371 -0.10387,-0.91278 0.392476,1.99585 2.135482,3.67685 4.148274,2.73925 1.27794,-0.59529 4.234637,0.67254 4.408439,-0.54324 0.159569,-1.11622 0.788627,-1.75557 2.309037,-1.12229 1.02614,0.42741 -0.0547,-0.72277 1.44243,-0.81127 2.08293,-0.12313 4.49446,-0.96884 6.2799,0.14225 1.57725,0.98153 0.75624,3.05548 0.72276,4.5521 -0.0406,1.81306 1.17012,4.42177 -0.65624,5.53282 -1.43441,0.87261 -1.88348,3.57567 -3.26925,3.56409 -1.62555,-0.0136 -2.62226,2.2266 -4.16461,2.12603 -1.36114,-0.0888 1.57344,-0.008 2.03686,4.5e-4 1.80974,0.0336 2.51004,1.41031 4.78214,1.46233 1.6811,0.0385 -0.77141,3.88484 0.46017,4.03334 1.41494,0.17061 1.40845,2.49634 1.53446,3.93127 0.23123,2.63315 -1.85693,4.67496 -2.83396,6.9985 -0.77419,1.84116 -4.49142,2.29957 -3.74817,-0.28716 0.46708,-1.62558 -0.52066,-3.41256 0.91503,-4.88659 1.4294,-1.46757 2.42399,-4.48908 4.46088,-4.24207 1.86466,0.22612 2.65854,-1.25733 4.05908,-2.00586 1.77284,-0.94751 2.62765,-2.41761 3.9481,-4.10512 1.24867,-1.59578 3.5602,-1.13112 4.97706,-2.49275 1.27869,-1.22885 2.80042,-1.42057 4.65431,-2.02605 2.16252,-0.70628 3.46172,0.89277 4.10167,2.96818 0.87337,2.83241 2.56299,7.0483 0.0502,8.84716 -1.28405,0.91922 -1.10845,2.0573 -1.89722,3.74041 -1.07086,2.28504 -3.42217,3.60452 -5.14953,5.35265 -2.1166,2.14205 -5.61497,3.2067 -6.7469,5.98813 -0.86163,2.11724 -2.62794,1.48273 -4.57361,3.03571 -1.20181,0.95925 -2.61025,2.76588 -4.18437,2.41873 -2.10477,-0.46418 -4.10604,0.63686 -5.89197,1.58358 -4.354106,2.3081 -9.692041,1.79238 -13.94158,4.20299 -1.957417,1.11037 -3.518836,2.95315 -5.856196,3.34948 -2.324999,0.39423 -4.681078,0.99307 -6.592042,2.35625 -1.642963,1.172 -3.412183,0.73255 -5.344051,1.17659 -4.671544,1.07375 -10.450973,-2.87875 -14.159397,0.14688 -1.621142,1.32266 -3.444526,0.90768 -5.45758,1.36581 -2.370064,0.53938 -4.81481,-0.35268 -7.192474,0.5463 -1.866685,0.70578 -4.37317,-0.10583 -5.731134,1.58781 -1.195809,1.4914 -3.232892,1.01154 -4.895263,0.77317 -2.110165,-0.30258 -3.861426,0.0146 -3.951534,2.17564 -0.04356,1.04461 -0.885746,3.83722 0.19409,3.7011 2.108349,-0.26577 2.591254,2.61059 2.184452,4.10793 -0.385179,1.41775 0.856683,4.64619 -0.38842,4.41941 -1.134421,-0.20662 -1.886508,1.29668 -2.052683,2.30059 -0.375045,2.26575 -1.187751,4.89449 -0.382458,6.96366 0.774225,1.98934 -2.776864,-0.50313 -1.771733,1.76082 0.811831,1.82856 -1.898487,2.71396 -1.855046,4.29786 0.05745,2.09462 -1.265794,3.54325 -3.201861,3.86322 -1.47421,0.24364 -1.596164,-3.56845 -0.608126,-4.1866 1.580738,-0.98897 0.586157,-2.78445 1.433052,-4.29916 0.723434,-1.29389 2.388784,-2.03956 2.90872,-3.364 0.579135,-1.47524 -0.0713,-2.9348 0.359515,-4.65219 0.14563,-0.58054 -0.08264,0.23593 0.498694,-0.28584 1.5445,-1.38625 0.780507,-3.55037 1.914493,-5.05817 1.362845,-1.8121 2.046571,-5.02306 4.349941,-5.26947 1.618001,-0.17309 4.210676,-0.7151 4.322825,1.71772 0.100782,2.18624 0.06918,4.3734 0.06902,6.57058 -1.37e-4,1.85739 0.894637,5.05394 -0.963657,5.52261 -1.297355,0.3272 -1.482793,0.3166 -1.278609,1.95266 0.187809,1.50485 -0.513103,1.90074 -1.387862,3.78792 -0.75145,1.62116 0.152916,3.51455 -0.708532,5.14665 -0.538007,1.01931 -1.814622,2.52052 0.367473,2.88122 4.682286,0.77398 9.474297,0.60111 14.202669,0.29861 1.649363,-0.10552 3.292115,-0.77265 4.180772,-2.26456 1.371077,-2.30182 1.528627,-5.14065 2.700439,-7.5244 0.788575,-1.60415 -0.0579,-2.74526 -2.118989,-2.42044 -1.731949,0.27295 -4.314825,-0.388 -5.200187,1.39593 -0.938594,1.89119 1.212568,5.11369 -0.713367,6.06641 -1.420332,0.70261 -0.637406,1.73246 -1.291054,3.38055 -0.751828,1.89564 0.697009,2.9704 2.705067,2.99487 2.4385,0.0297 4.901978,0.18953 7.326296,-0.12877 0.985344,-0.12937 1.616321,-0.58512 0.180273,-0.74241 -1.342341,-0.14703 2.193198,-0.90281 2.782794,-0.68223 1.937273,0.72477 2.363551,-2.06005 4.113865,-2.08241 1.683598,-0.0215 2.406163,-2.12023 3.849288,-2.24647 1.308682,-0.11448 2.06101,-1.99198 2.552543,-3.26968 0.418156,-1.08696 -0.423377,-2.55184 1.470532,-2.44121 1.94778,0.11378 4.537657,-0.75926 5.779074,0.99354 0.96666,1.36486 2.153,1.19621 2.916988,3.30561 0.454973,1.2562 -1.067612,0.50679 -1.601992,1.94713 -0.480342,1.29469 -2.311564,1.00762 -2.580973,2.74033 -0.314653,2.0237 -0.705841,3.42408 -2.407768,4.82946 -1.312275,1.08362 -1.355364,4.56905 0.141998,4.8136 2.922411,0.47729 5.89177,-0.0176 8.857208,0.0964 3.39364,0.13047 7.189197,1.1086 10.204363,-0.65649 3.433796,-2.01016 4.42712,-6.31434 4.723003,-10.19716 0.101838,-1.3364 -1.198604,-1.10175 -2.288795,-1.42368 -2.712853,-0.8011 -5.979673,0.0242 -7.489173,2.60913 -1.595794,2.73275 -1.363751,6.00392 -1.197859,9.01241 0.120247,2.18071 0.425507,4.30429 1.538823,6.45116 1.175706,2.26718 3.720768,0.49247 5.353937,1.64491 1.266765,0.89389 4.570083,-0.38636 4.070531,2.0406 -0.306497,1.48905 -0.347412,2.75639 -1.559733,4.03672 -1.159663,1.22472 -1.617224,3.24267 -3.180306,3.82432 -2.788283,1.03757 -5.362525,3.13075 -8.540002,2.68541 -1.861206,-0.26086 -3.712401,-0.11567 -5.565923,0.27534 -4.361052,0.91998 -9.733168,3.67282 -13.354396,0.95716 -1.576377,-1.18217 -3.338033,-0.20706 -5.078449,-1.50873 -1.482725,-1.10894 -3.299918,-0.52998 -5.140972,-1.14978 -2.951306,-0.99357 -5.551296,-2.84019 -8.533074,-3.74109 -1.100902,-0.33262 -3.288702,-2.29018 -3.624899,-1.27965 -0.387418,1.16449 -2.536594,-0.84153 -3.191574,-1.47833 -1.443899,-1.40382 -3.925198,-2.55792 -5.411635,-1.45075 -1.976991,1.47256 -1.95216,-1.02144 -4.299156,-1.43305 -0.947906,-0.16624 -0.02083,-0.48807 -0.503174,-1.12776 -1.125078,-1.4921 -3.894501,-1.68797 -4.000302,-3.8811 -0.149615,-3.10134 -2.678981,-5.13601 -4.285928,-7.53987 -1.123063,-1.68001 0.313447,-3.64175 0.206255,-5.45176 -0.12705,-2.14533 -4.607753,-2.03715 -3.768851,-4.29701 0.811874,-2.18705 -2.025126,-3.95294 -1.310435,-5.90892 0.809642,-2.21584 -1.598561,-3.69861 -1.40573,-5.82344 0.207844,-2.29026 -1.162315,-4.33343 -1.49133,-6.57296 -0.747099,-5.08533 -0.974175,-10.26683 0.0794,-15.2862 0.535356,-2.55051 -1.557575,-4.5547 -1.444155,-7.16385 0.195965,-4.50804 -2.3298646,-8.59614 -2.2803843,-13.127 C 9.2199117,150.2392 10.90423,145.43506 8.4818459,141.61003 7.3354565,139.79984 8.2443642,137.68216 7.5235223,135.78166 6.7170286,133.65534 6.9307888,131.30095 6.7842218,129.064 6.6459865,126.95421 5.5143363,124.95354 5.7892817,122.8023 6.1041171,120.33895 5.0057882,118.30312 4.2629243,116.01022 3.0820717,112.36544 1.2881483,108.72302 1.3551841,104.86228 1.3939676,102.62865 2.1132766,100.2014 0.703634,98.167504 -1.0847757,95.587106 0.6130814,92.383989 0.10015141,89.55952 -0.34820981,87.090601 0.58779382,82.927497 -1.862973,82.261922 c -0.6671117,-0.181173 -0.1407078,2.611695 -0.5608171,0.584916 -0.4527591,-2.184295 -0.9927105,-4.463129 -0.41909,-6.636303 0.5900225,-2.235313 -1.7282157,-4.587749 -0.5957405,-6.483694 0.8634363,-1.445531 1.6670549,-2.903875 1.2172058,-4.725895 -0.431679,-1.748426 -0.2651264,-3.392842 1.71428173,-4.417592 1.19000106,-0.61607 0.87339232,-1.582587 0.84902387,-2.858752 -0.0350243,-1.83421 2.0852813,-1.272298 2.0847851,-3.534331 -5.031e-4,-2.293436 -0.8750589,-4.6255 -0.2770981,-6.899559 0.4257042,-1.618963 1.4316878,-1.905381 2.0133539,-3.1993 0.6629227,-1.474675 0.1482354,-3.057277 0.738606,-4.433995 0.251215,-0.585822 1.3348695,0.154089 0.8457523,-1.058369 -0.8589731,-2.129283 1.9289466,-1.757786 2.3866381,-3.802732 0.4030009,-1.800591 1.1031854,-3.529636 2.3950389,-4.877826 1.669171,-1.741962 1.136896,-6.326031 3.500667,-6.119193 1.26546,0.110732 2.250003,-2.134818 2.680133,-3.477453 0.569085,-1.776379 3.268313,-1.849624 3.559534,-3.731083 0.313833,-2.027548 2.693187,-0.713565 3.569385,-1.707881 1.119613,-1.270546 3.207647,-0.859786 4.768231,-0.868799 3.842397,-0.02219 7.677973,0.25858 11.518534,0.316437 z"
       id="path526"
       inkscape:path-effect="#path-effect528"
       inkscape:original-d="m 40.125451,14.330518 c 0,0.955368 0,1.910736 0,2.866104 0,1.108378 0.360471,3.217748 0,4.299156 -0.711203,2.133608 -2.149578,4.303142 -2.149578,6.448733 -0.272426,-0.811731 0.379873,-2.106359 0,-2.866104 -0.239493,-0.478987 -3.4465,-4.970305 -3.582628,-5.015681 -0.45317,-0.151057 -0.979881,0.151057 -1.433052,0 -0.320439,-0.106814 -0.414411,-0.565469 -0.716526,-0.716526 -1.456153,-0.728076 -9.505063,0.541092 -10.031363,0.716526 -0.226586,0.07553 0.106813,0.502899 0,0.716526 -0.429916,0.859831 -1.719663,1.289746 -2.149578,2.149578 -0.213627,0.427253 0.151057,0.979881 0,1.433052 -0.106814,0.32044 -0.634604,0.388837 -0.716526,0.716525 -0.232518,0.930073 0.568517,4.162906 0,5.015682 -0.374726,0.562089 -1.18216,0.805823 -1.433052,1.433052 -0.290826,0.727064 0.503544,6.129261 0.716526,6.448732 1.076719,1.61508 3.592214,0.242038 5.015682,0.716526 0.32044,0.106815 0.477684,0.477684 0.716526,0.716526 0.716525,0.238842 1.416844,0.533344 2.149577,0.716526 1.304927,0.326234 8.10696,0.266176 8.598312,-0.716526 0.213625,-0.427252 0,-0.955368 0,-1.433052 0,-3.123716 -2.548511,-2.149576 -5.015682,-2.149576 -0.876745,0 -3.138051,0.543894 -3.58263,1.43305 -0.106813,0.213627 0.168886,0.54764 0,0.716526 -0.168886,0.168889 -0.547639,-0.168886 -0.716526,0 -1.658853,1.658855 -1.891522,3.066521 -2.866103,5.015682 -0.302114,0.604229 -1.058326,0.870964 -1.433052,1.433052 -1.089701,1.634551 -2.718223,5.013603 -4.299156,5.732209 -5.142754,2.337615 -3.713381,-1.584727 -7.165259,0.716526 -0.183712,0.122473 -0.9356713,5.074769 -0.7165259,5.732206 0.7892439,2.367732 4.9661279,2.551943 7.1652589,2.866104 0.709325,0.101333 1.4843,-0.26611 2.149578,0 0.62723,0.250891 0.805822,1.182161 1.433052,1.433052 0.926747,0.3707 11.983242,0.304742 12.897467,0 1.01332,-0.337775 2.011595,-0.792173 2.866104,-1.433052 1.351093,-1.01332 2.263844,-2.527602 3.582628,-3.58263 0.514874,-0.411898 1.827191,-0.627084 2.149578,-1.433053 0.785815,-1.964539 1.471875,-4.415617 2.149578,-6.448731 0.429916,-1.289749 -0.429916,-3.009411 0,-4.299157 0.106813,-0.320439 0.650283,-0.385312 0.716526,-0.716526 0.234204,-1.171019 -0.844433,-2.738196 0,-3.58263 0.675548,-0.675547 1.910737,0 2.866105,0 1.942422,0 9.61368,-0.567103 10.747888,0 0.302114,0.151059 0.56547,0.414414 0.716526,0.716526 1.373026,2.746055 -2.571277,8.303485 -4.299157,10.031365 -0.168886,0.168886 -0.609711,-0.213627 -0.716526,0 -0.213624,0.427252 0.151059,0.979879 0,1.433052 -1.464198,4.392599 0.826,-4.627581 -1.433052,2.149575 -0.07553,0.226587 0.168889,0.54764 0,0.716526 -0.168886,0.168889 -0.640995,-0.226583 -0.716523,0 -0.377643,1.132928 0,2.388421 0,3.582631 0,4.462677 1.673111,4.299156 5.732206,4.299156 1.58021,0 4.223117,0.503029 5.732208,0 1.380162,-0.460055 2.566416,-4.533463 2.866104,-5.732208 0.115853,-0.463421 -0.213627,-1.005798 0,-1.433052 1.363433,-2.726865 1.132483,-0.230778 2.149576,-4.299154 0.238842,-0.716526 0.477684,-1.433052 0.716526,-2.149578 0.238842,0 0.609714,0.213627 0.716526,0 0.213627,-0.427255 -0.115856,-0.969632 0,-1.433052 0.183184,-0.732735 1.471811,-2.149579 0.716526,-2.149579 -0.188905,0 0.267211,2.695903 0,4.299157 -0.124166,0.745008 -0.533342,1.416843 -0.716526,2.149578 -0.106452,0.425812 -0.134456,7.6801 0,7.881784 1.049573,1.574355 6.682962,2.696821 8.598313,2.149578 2.350992,-0.671714 6.34873,-5.325594 7.881784,-7.165261 1.109641,-1.331568 1.391142,-3.751619 2.149578,-5.015679 0.614415,-1.024028 1.487149,-1.872462 2.149578,-2.866104 0.296246,-0.444371 0.338883,-1.05541 0.716526,-1.433053 0.168886,-0.168886 0.54764,0.168887 0.716526,0 0.168886,-0.168886 -0.168886,-0.547639 0,-0.716526 0.612865,-0.612865 2.014731,-1.000318 2.866104,-0.716526 2.614271,0.871424 2.369463,5.952093 3.582628,7.165261 1.511414,1.511411 2.274689,-3.58263 0.716526,-3.58263 -3.53006,0 -7.524779,0.538022 -10.747888,2.149578 -0.302115,0.151056 -0.414412,0.565467 -0.716526,0.716526 -0.675548,0.337772 -1.559798,0.244702 -2.149579,0.716526 -2.055881,1.644705 -1.591929,4.934669 -2.149578,7.165258 -0.129529,0.51812 -0.586994,0.914932 -0.716526,1.433052 -0.271706,1.086831 -0.427474,9.176411 0,10.031362 0.106815,0.213627 0.477684,0 0.716526,0 3.582631,0 7.165261,0 10.747891,0 3.303696,0 7.500273,0.649523 10.747893,0 0.33121,-0.06624 0.42688,-0.542742 0.71652,-0.716526 1.37388,-0.824325 3.16623,-1.016651 4.29916,-2.149576 2.24371,-2.243719 3.07957,-5.015682 6.44873,-5.015682 0.95537,0 1.91074,0 2.8661,0 0.23885,0 0.54764,-0.168886 0.71653,0 0.16889,0.168886 -0.10681,0.502899 0,0.716526 1.491,2.982008 -0.0495,-0.765992 1.43305,0.716526 0.16889,0.168886 -0.16888,0.547637 0,0.716526 0.16889,0.168886 0.54764,-0.168889 0.71653,0 0.65929,0.659294 0,3.163702 0,4.299154 0,3.830587 0.56884,3.700775 -2.86611,6.448734 -0.52751,0.422011 -0.80582,1.182161 -1.43305,1.433052 -0.66527,0.26611 -1.43305,0 -2.14958,0 -2.14957,0 -4.30461,-0.153151 -6.44873,0 -8.02305,0.573075 0.90573,0.682125 -7.16526,2.149579 -1.40993,0.256352 -2.878673,-0.1894 -4.299155,0 -2.182696,0.291025 -4.27668,1.071041 -6.448732,1.433052 -3.331779,0.555294 -6.699586,0.877755 -10.031362,1.433052 -2.866104,0.477684 -5.707094,1.143928 -8.598313,1.433049 -1.188283,0.11883 -2.404668,-0.196326 -3.58263,0 -0.333177,0.05553 -0.38531,0.650285 -0.716526,0.716526 -5.446226,0 -0.867818,-0.427251 -4.299154,0.716526 -1.90219,0.634064 -4.473569,-0.39503 -6.448734,0 -0.523695,0.104741 -0.955368,0.477684 -1.433052,0.716526 -1.433053,0.238842 -2.860937,0.511067 -4.299154,0.716526 -1.96273,0.28039 -4.576972,-0.623921 -6.448735,0 -0.816964,0.272323 -1.332613,1.16073 -2.149578,1.433053 -2.149578,0.716526 1.433052,-1.433053 -2.149578,0 -1.525849,0.61034 -2.874364,2.153708 -4.299154,2.866104 -0.213627,0.106812 -0.502901,-0.106812 -0.716526,0 -0.477684,0.238842 -1.910736,1.671894 -2.149578,2.149578 -0.106815,0.213627 0.168886,0.54764 0,0.716526 -0.168886,0.168886 -0.609714,-0.213627 -0.716526,0 -0.320439,0.640879 0.506659,1.642917 0,2.149578 -0.168886,0.168886 -0.477684,0 -0.716526,0 -0.238842,0.238842 -0.529164,0.435481 -0.716526,0.716526 -1.891239,2.836857 -3.806195,5.709291 -5.732208,8.598311 -0.621951,0.93293 -1.655482,1.87791 -2.149577,2.8661 -0.320441,0.64088 0.226585,1.46982 0,2.14958 -0.106814,0.32044 -0.609713,0.39609 -0.716526,0.71653 -0.265717,0.79714 -0.53388,5.38097 0,6.44873 1.683725,3.36745 11.900573,3.76954 14.330517,2.14958 2.918499,-1.94567 2.841741,-6.35128 3.58263,-9.31484 0.05793,-0.23171 0,0.47769 0,0.71653 0,1.88858 -0.612764,5.32696 0,7.16526 0.745503,2.2365 0.477684,-0.23885 1.433052,0.71652 0.168886,0.16889 0,0.47769 0,0.71653 0.477684,0.47768 0.870964,1.05832 1.433052,1.43305 0.672436,0.44829 6.049161,0.0826 6.448735,-0.71653 0.941438,-1.88287 2.316919,-4.252 2.866101,-6.44873 0.09127,-0.36505 -0.256537,-3.32609 0,-3.58263 1.120924,-1.12092 0.551657,2.06714 0.716526,2.14958 0.427255,0.21362 1.005801,-0.21363 1.433053,0 0.427254,0.21362 -0.337773,1.09528 0,1.43305 1.910736,0 -0.238842,-0.23884 0.716526,0.71653 0.337775,0.33777 1.035595,-0.26497 1.433052,0 0.562088,0.37472 0.870963,1.05832 1.433052,1.43305 1.481894,0.98793 8.714406,1.05544 10.747888,0.71652 2.020903,-0.33681 2.185149,-0.73431 3.58263,-1.43305 0.213627,-0.10681 0.54764,0.16889 0.716526,0 0.168886,-0.16888 -0.168886,-0.54764 0,-0.71652 1.068377,-1.06838 0.252209,2.61389 0,2.8661 -0.377642,0.37764 -1.055409,0.33888 -1.433052,0.71653 -0.168886,0.16888 0.106815,0.50289 0,0.71652 -0.45317,0.90634 -1.587489,1.30645 -2.149578,2.14958 -0.227124,0.34069 -0.07258,3.36489 0,3.58263 0.532498,1.59749 3.283627,0.92529 4.299156,1.43305 0.302115,0.15106 0.396087,0.60971 0.716526,0.71653 0.994307,0.33143 9.155986,0.29179 10.031362,0 2.236508,-0.74551 -0.238842,-0.47769 0.716527,-1.43305 0.844433,-0.84444 2.332037,-1.08145 2.866104,-2.14958 0.508751,-1.01751 0.540581,-3.40669 1.433052,-4.29916 0.168886,-0.16888 0.54764,0.16889 0.716526,0 0.506661,-0.50666 0,-1.43305 0,-2.14958 0,-0.23884 0,0.47769 0,0.71653 0,0.72675 0.945936,2.37899 1.433052,2.8661 0.572709,0.57271 4.043389,0 5.01568,0 0.295042,0 1.959909,0.18967 2.149578,0 0.168886,-0.16888 -0.168886,-0.54764 0,-0.71652 0.358264,-0.35826 1.791317,0.35826 2.149577,0 0.16889,-0.16889 -0.16889,-0.54764 0,-0.71653 0.16889,-0.16888 0.54764,0.16889 0.71653,0 0.16888,-0.16888 -0.22659,-0.641 0,-0.71652 0.82181,-0.27394 6.21939,-0.47294 7.16526,0 0.30211,0.15105 0.56547,0.41441 0.71652,0.71652 0.37671,0.75343 0,2.72199 0,3.58263 0,1.24999 0.56843,4.16304 0,5.01568 -0.74945,1.12418 -2.05544,1.78523 -2.8661,2.86611 -0.32044,0.42725 -0.33888,1.05541 -0.71653,1.43305 -0.16888,0.16888 -0.48994,-0.0755 -0.71652,0 -1.37494,0.45831 -2.39093,1.55373 -3.58263,2.14958 -0.21363,0.10681 -0.71653,-0.23885 -0.71653,0 0,0.20121 6.22696,-0.22178 6.44874,0 0.37764,0.37764 0.33888,1.05541 0.71652,1.43305 0.16889,0.16888 0.60971,-0.21363 0.71653,0 0.57322,1.14644 -0.57322,3.15271 0,4.29915 0.10681,0.21363 0.60971,-0.21362 0.71652,0 0.89031,1.78062 0.71653,3.17693 0.71653,5.01568 0,2.14784 -4.67103,10.00414 -6.44873,6.44874 -0.32044,-0.64088 0,-1.43305 0,-2.14958 0,-0.53321 -0.30332,-2.46169 0,-2.8661 0.71652,-0.95537 4.06031,-4.29916 5.01568,-5.01568 0.60422,-0.45318 1.52114,-0.29757 2.14957,-0.71653 0.56209,-0.37473 0.82883,-1.13094 1.43306,-1.43305 0.21362,-0.10682 0.51779,0.13248 0.71652,0 1.63647,-1.09098 1.6463,-2.36283 2.86611,-3.58263 0.37764,-0.37764 1.00579,-0.39609 1.43305,-0.71653 0.54044,-0.40533 0.82882,-1.13094 1.43305,-1.43305 0.88081,-0.4404 1.95177,-0.35079 2.8661,-0.71653 1.89614,-0.75845 1.21286,-2.14957 4.29916,-2.14957 1.8332,0 3.5906,-0.6926 4.29915,1.43305 1.05977,3.17931 2.07341,6.63917 0.71653,10.03136 -0.37634,0.94085 -1.69641,1.24324 -2.14958,2.14958 -0.28661,0.57322 0.28661,1.57636 0,2.14958 -0.98067,1.96133 -4.17489,4.17489 -5.7322,5.7322 -1.85727,1.85727 -3.70072,3.39049 -5.73221,5.01569 -0.52752,0.42201 -0.82883,1.13093 -1.43305,1.43305 -0.88081,0.4404 -2.02168,0.20986 -2.86611,0.71652 -0.45796,0.27478 -0.47768,0.95537 -0.71652,1.43305 -1.19421,0.71653 -2.27863,1.66058 -3.58263,2.14958 -0.67091,0.25159 -1.45445,-0.17378 -2.14958,0 -2.4956,0.6239 -4.72486,2.05264 -7.16526,2.86611 -3.517552,1.17251 -7.33986,1.40552 -10.747889,2.8661 -1.583058,0.67845 -2.735366,2.14435 -4.299157,2.86611 -1.578755,0.72865 -3.378184,0.84823 -5.015679,1.43305 -1.712997,0.61178 -3.273428,1.6269 -5.015683,2.14957 -0.686308,0.2059 -1.442802,-0.11779 -2.149578,0 -0.745008,0.12417 -1.404569,0.59236 -2.149578,0.71653 -4.39347,0.73224 -9.249272,-0.87294 -13.613992,0 -0.523695,0.10474 -0.926391,0.54764 -1.433052,0.71653 -0.679755,0.22658 -1.446967,-0.14053 -2.149579,0 -0.740616,0.14812 -1.408959,0.5684 -2.149575,0.71652 -1.639427,0.32789 -3.3567,-0.20737 -5.015682,0 -2.279021,0.28488 -3.561604,1.42604 -5.732209,2.14958 -0.679754,0.22659 -1.508696,-0.32044 -2.149578,0 -0.302112,0.15106 -0.414412,0.56547 -0.716526,0.71653 -0.875371,0.43768 -3.532621,-0.15331 -4.299154,0 -1.814877,0.36297 -1.97644,2.063 -2.149578,2.14957 -0.427254,0.21363 -1.005798,-0.21362 -1.433052,0 -0.427254,0.21363 0,0.95537 0,1.43306 0,0.29504 -0.189669,1.9599 0,2.14957 0.510455,0.51046 1.05655,-0.753 2.149578,1.43305 0.610571,1.22115 0,4.31705 0,5.73221 0,0.47769 0.337772,1.09528 0,1.43305 -0.168886,0.16889 -0.54764,-0.16888 -0.716526,0 -0.377642,0.37765 -0.42028,0.98869 -0.716526,1.43306 -0.187362,0.28104 -0.609714,0.39608 -0.716526,0.71652 -0.704829,2.11449 -0.185552,4.32484 -0.716526,6.44873 1.297524,2.99778 -1.130938,0.82883 -1.433052,1.43306 -0.382146,0.76429 0.382148,2.10181 0,2.8661 -0.534316,1.06863 -1.603065,1.77308 -2.149578,2.8661 -0.106813,0.21363 0.106814,0.5029 0,0.71653 -0.410719,0.82144 -1.49504,0.99669 -2.149577,1.43305 -0.423639,0.28243 -0.826841,2.03927 -1.433052,1.43305 -0.322125,-0.32212 -0.125247,-4.04866 0,-4.29915 0.302114,-0.60423 1.058325,-0.87096 1.433052,-1.43305 0.32798,-0.49198 -0.154198,-2.40351 0,-2.86611 0.377642,-1.13293 1.679155,-1.76845 2.149577,-2.8661 1.931006,-0.70939 0.436021,-2.46061 0.716526,-3.58263 1.412496,-5.64998 -0.185463,1.53845 2.149578,-4.29916 0.177408,-0.44351 -0.151056,-0.97988 0,-1.43305 0.27179,-0.81536 2.273107,-3.40966 2.866104,-4.29915 0.356132,-0.5342 1.578742,-1.86416 2.149578,-2.14958 0.29314,-0.14657 3.381928,-0.2007 3.582628,0 1.168461,1.16846 0.716526,3.56404 0.716526,5.01568 0,2.70989 0.494842,6.17558 -0.716526,8.59831 -0.151056,0.30211 -0.565468,0.41441 -0.716524,0.71653 -0.213627,0.42725 0.337773,1.09528 0,1.43305 -0.168888,0.16889 -0.547639,-0.16889 -0.716526,0 -0.168888,0.16889 0.106813,0.5029 0,0.71652 -0.302114,0.60423 -1.13094,0.82883 -1.433052,1.43306 -0.282921,0.56584 0.201425,1.5453 0,2.14957 -0.168889,0.50667 -0.54764,0.9264 -0.716526,1.43306 -0.331263,0.99378 0.232564,2.65237 0,3.58263 -0.01069,0.0427 -1.492199,1.76174 -0.716526,2.14957 2.361483,1.18074 15.615219,1.37876 17.913149,0 2.078781,-1.24726 2.864728,-4.29503 3.582627,-6.44873 0.366282,-1.09884 1.328973,-4.40324 0.716527,-5.01568 -0.675548,-0.67555 -1.910737,0 -2.866105,0 -7.234869,0 -3.794212,3.50086 -5.015679,7.16526 -0.106815,0.32044 -0.609714,0.39609 -0.716526,0.71652 -0.226587,0.67976 0.320439,1.5087 0,2.14958 -0.151059,0.30212 -0.565471,0.41441 -0.716527,0.71653 -0.303347,0.60669 -0.129238,2.69695 0.716527,2.8661 0.830003,0.166 8.322603,0.33075 9.314836,0 4.095826,-1.36527 -4.331624,-0.13681 2.149578,-1.43305 0.702611,-0.14052 1.484299,0.26611 2.149578,0 0.627229,-0.25089 0.892614,-1.02772 1.433052,-1.43305 1.276474,-0.95736 2.256007,-0.54864 3.58263,-1.43305 0.562089,-0.37473 0.828823,-1.13094 1.433052,-1.43306 0.213625,-0.10681 0.547638,0.16889 0.716524,0 0.377642,-0.37764 0.441751,-0.97509 0.716526,-1.43305 0.443063,-0.73843 1.113226,-1.35001 1.433052,-2.14958 0.461695,-1.15423 -0.795438,-2.14957 0.716526,-2.14957 1.19421,0 2.38842,0 3.58263,0 2.238362,0 2.674755,1.06664 4.299157,2.14957 1.306173,0.87079 1.433052,-0.40305 1.433052,2.14958 0,0.23884 0.168886,0.54764 0,0.71653 -0.168889,0.16888 -0.502899,-0.10681 -0.716526,0 -1.097415,0.54871 -0.560338,1.27686 -1.433052,2.14958 -0.168887,0.16888 -0.54764,-0.16889 -0.716527,0 -1.776351,1.77635 -1.018749,1.88638 -2.149578,3.58263 -0.374726,0.56209 -1.219425,0.79217 -1.433052,1.43305 -0.151056,0.45317 0.151056,0.97988 0,1.43305 -0.106812,0.32044 -0.609711,0.39608 -0.716526,0.71652 -0.281995,0.84599 -0.117964,3.74283 0.716526,4.29916 0.565862,0.37724 5.391452,0 6.448735,0 3.402594,0 9.973135,1.03807 12.897466,-0.71653 3.236325,-1.94179 5.221182,-7.05977 4.299154,-10.74788 -0.05793,-0.23171 -0.48994,0.0755 -0.716524,0 -0.506661,-0.16889 -0.914932,-0.587 -1.433052,-0.71653 -5.331891,-1.33297 -8.598312,2.01332 -8.598312,7.16526 0,2.12631 -0.460444,8.46207 0.716526,10.03136 0.607994,0.81066 1.338921,1.54159 2.149578,2.14958 0.529301,0.39698 2.202627,-0.16587 2.866104,0 0.732734,0.18318 1.408959,0.5684 2.149578,0.71653 1.327216,0.26544 3.741674,-0.47714 2.866102,2.14957 -0.247396,0.7422 -1.07763,1.43874 -1.43305,2.14958 -0.213627,0.42726 0.213625,1.0058 0,1.43305 -0.453173,0.90634 -1.541587,1.33892 -2.149578,2.14958 -0.320442,0.42726 -0.338884,1.05541 -0.716526,1.43305 -0.377642,0.37765 -0.942168,0.50615 -1.433052,0.71653 -1.671894,0.71653 -3.232039,1.79285 -5.015682,2.14958 -2.061406,0.41228 -4.397545,-0.45582 -6.448732,0 -4.61014,1.02447 -9.511382,2.1215 -14.330519,1.43305 -0.747694,-0.10682 -1.404569,-0.59236 -2.149578,-0.71653 -0.706779,-0.11779 -1.469821,0.22659 -2.149578,0 -0.816965,-0.27232 -1.332614,-1.16073 -2.149578,-1.43305 -0.679757,-0.22658 -1.446967,0.14052 -2.149578,0 -1.481236,-0.29625 -2.866105,-0.95537 -4.299157,-1.43305 -3.303905,-1.1013 -6.114071,-3.01885 -9.314836,-4.29916 -1.791314,-0.71652 0.716526,1.43306 -2.149578,0 -1.068133,-0.53406 -1.757307,-1.70606 -2.866104,-2.14957 -1.348907,-0.53957 -2.880932,-0.40137 -4.299154,-0.71653 -1.939462,1.21779 -1.852784,-1.09528 -2.866104,-1.43305 -0.45317,-0.15106 -0.979882,0.15106 -1.433052,0 -2.236507,-0.7455 0.238842,-0.47769 -0.716526,-1.43305 -0.917541,-0.91754 -3.014546,-1.4459 -3.58263,-2.86611 -0.365734,-0.91433 -0.276123,-1.9853 -0.716525,-2.8661 -1.092902,-2.1858 -3.367531,-4.11967 -4.299156,-6.44874 -0.354815,-0.88703 0.26246,-1.94749 0,-2.8661 2.367306,-3.36922 -1.554535,-2.81155 -2.149578,-4.29915 -1.779503,-1.18643 -0.257104,-2.92089 -0.716526,-4.29916 -0.337773,-1.01332 -1.139613,-1.83907 -1.433052,-2.8661 -0.196844,-0.68896 0.196845,-1.46062 0,-2.14958 -0.293439,-1.02704 -1.139613,-1.83907 -1.433052,-2.8661 -0.196844,-0.68896 0.140523,-1.44697 0,-2.14958 -0.341005,-1.70503 -1.122006,-3.30494 -1.433051,-5.01568 -0.923108,-5.0771 0.640484,-10.6397 0,-15.76357 0.462578,-2.13807 -1.154517,-3.78246 -1.433052,-5.73221 -0.13511,-0.94577 0.105503,-1.91658 0,-2.8661 -0.35417,-3.18753 -1.6994521,-6.16396 -2.1495779,-9.31484 -0.591226,-4.13858 0.9059659,-8.82062 0,-12.89747 -0.3276886,-1.4746 -1.136805,-2.81792 -1.4330518,-4.29915 -0.1873631,-0.93682 0.1351092,-1.92034 0,-2.86611 -0.1068134,-0.74769 -0.6097127,-1.40188 -0.7165261,-2.14958 -0.4232045,-2.96243 -0.2812947,-6.98474 -0.7165258,-10.03136 -0.1068133,-0.74769 -0.6097127,-1.40188 -0.716526,-2.14958 -0.1351095,-0.94576 0.1570614,-1.92373 0,-2.8661 -0.0878,-0.5268 -0.5476391,-0.92639 -0.7165258,-1.43305 -1.2929545,-3.87887 -2.9059238,-8.12071 -3.5826298,-12.18094 -0.3402807,-2.04169 0.5658712,-4.46819 0,-6.448737 C 1.1396129,98.570067 0.25906049,97.767242 0,96.730999 -0.61586691,94.267532 0.49728961,91.335663 0,88.849215 -0.38625885,86.91792 -0.70158255,84.945679 -1.4330518,83.117006 c -1.470954,-3.677383 -0.1169703,5.030388 -1.4330519,-2.866101 -0.345423,-2.07254 0.2601003,-4.367932 0,-6.448735 -0.1221457,-0.977167 -0.5233966,-1.900457 -0.716526,-2.866104 -0.266123,-1.330613 1.083325,-2.533449 1.4330519,-3.58263 0.412968,-1.238904 -0.8479323,-4.884275 0,-5.732206 C -1.5406478,61.012299 -0.60892994,60.797109 0,60.188178 2.0002706,58.187907 -0.57588279,59.190365 0.71652592,56.605548 0.95536791,56.127864 1.8533308,56.333392 2.1495778,55.889022 c 0.9430841,-1.414627 -0.8587767,-6.880757 0,-8.59831 2.632958,-5.265918 0.3866777,1.70607 2.8661038,-5.732209 0.3582627,-1.074788 -0.7165261,-0.716526 0,-2.149578 0.1068133,-0.213625 0.6409973,0.226587 0.7165258,0 0.2265854,-0.679754 -0.3204401,-1.508696 0,-2.149578 0.238842,-0.477682 1.0554096,-0.338884 1.4330518,-0.716524 1.2437298,-1.243732 1.1709678,-3.547768 2.1495779,-5.015682 0.6624283,-0.993643 1.4871489,-1.872461 2.1495779,-2.866104 0.881878,-1.322816 1.267699,-2.976339 2.149578,-4.299155 1.433051,-2.149578 0,1.433051 2.149577,-2.149578 1.842631,-3.071052 0.101115,-1.978146 3.58263,-4.299156 1.014044,-0.676029 0.996845,-2.481859 2.149578,-2.866104 0.679756,-0.226585 1.508697,0.320441 2.149578,0 0.302113,-0.151056 0.388837,-0.634603 0.716526,-0.716526 2.856472,-0.714118 12.4033,0 15.763569,0 z" /></g></svg>
