<?xml version="1.0" encoding="UTF-8" standalone="no"?>
<svg
   version="1.1"
   id="svg2671"
   width="265"
   height="190"
   viewBox="0 0 265 190"
   sodipodi:docname="teapot.svg"
   inkscape:version="1.2.1 (9c6d41e410, 2022-07-14)"
   xmlns:inkscape="http://www.inkscape.org/namespaces/inkscape"
   xmlns:sodipodi="http://sodipodi.sourceforge.net/DTD/sodipodi-0.dtd"
   xmlns="http://www.w3.org/2000/svg"
   xmlns:svg="http://www.w3.org/2000/svg">
  <defs
     id="defs2675" />
  <sodipodi:namedview
     id="namedview2673"
     pagecolor="#505050"
     bordercolor="#eeeeee"
     borderopacity="1"
     inkscape:showpageshadow="0"
     inkscape:pageopacity="0"
     inkscape:pagecheckerboard="0"
     inkscape:deskcolor="#505050"
     showgrid="false"
     inkscape:zoom="2.1815789"
     inkscape:cx="154.24608"
     inkscape:cy="92.593486"
     inkscape:window-width="1920"
     inkscape:window-height="1009"
     inkscape:window-x="-8"
     inkscape:window-y="-8"
     inkscape:window-maximized="1"
     inkscape:current-layer="g2677" />
  <g
     inkscape:groupmode="layer"
     inkscape:label="Image"
     id="g2677">
    <path
       style="fill:none;fill-opacity:0;stroke:#000000"
       d="M 22.231604,53.172497 40.108565,47.901086 C 61.881785,79.300362 72.424608,80.675513 72.424608,80.675513 79.758745,57.527141 99.46924,51.109771 99.46924,51.109771 l 71.27865,-0.458384 0.22435,-2.525649 -73.107342,-0.68304 m 0,0 c 7.964412,-11.86067 27.445722,-7.79252 27.445722,-7.79252 -0.80218,-18.62183 22.46079,-20.05428 19.424,-0.17189 37.26221,3.95462 28.18668,9.95095 28.18668,9.95095 l 14.58568,13.93742 c 41.75469,-47.683069 98.33971,25.439132 11.02029,62.556352 l 2.70313,-10.41034 c 75.57333,-37.236205 13.98936,-84.396559 -7.80812,-46.959989 l 2.99509,60.940689 c -6.64656,13.7515 -19.02292,23.60675 -19.02292,23.60675 12.60555,3.43788 -6.18818,8.02171 -6.18818,8.02171 C 62.110977,168.22678 93.968637,153.32931 93.968637,153.32931 82.279855,147.14113 77.696019,136.59832 77.696019,136.59832 26.81544,120.0965 60.277443,78.841975 22.231604,53.172498"
       id="path3217"
       sodipodi:nodetypes="ccccccccccccccccccccc" />
  </g>
</svg>
